%FSLAX46Y46*%
%MOMM*%
%AMPS10*
1,1,0.700000,0.000000,0.000000*
%
%ADD10PS10*%
G01*
%LPD*%
G36*
X51390000Y46510000D02*
X51429004Y46517920D01*
X51461829Y46540425D01*
X51483277Y46573952D01*
X51490000Y46610000D01*
X51490000Y91390000D01*
X51482080Y91429004D01*
X51459575Y91461829D01*
X51426048Y91483277D01*
X51390000Y91490000D01*
X610000Y91490000D01*
X570996Y91482080D01*
X538171Y91459575D01*
X516723Y91426048D01*
X510000Y91390000D01*
X510000Y46610000D01*
X517920Y46570996D01*
X540425Y46538171D01*
X573952Y46516723D01*
X610000Y46510000D01*
X51390000Y46510000D01*
D02*
G37*
%LPC*%
G36*
X48360443Y83574778D02*
X48345255Y83574778D01*
X48233736Y83580257D01*
X48218634Y83581745D01*
X48108185Y83598128D01*
X48093294Y83601090D01*
X47985003Y83628216D01*
X47970447Y83632631D01*
X47865356Y83670234D01*
X47851300Y83676056D01*
X47750392Y83723781D01*
X47736979Y83730950D01*
X47641227Y83788341D01*
X47628603Y83796777D01*
X47538931Y83863283D01*
X47527171Y83872934D01*
X47444473Y83947887D01*
X47433705Y83958655D01*
X47358752Y84041353D01*
X47349101Y84053113D01*
X47282595Y84142785D01*
X47274159Y84155409D01*
X47216768Y84251161D01*
X47209599Y84264574D01*
X47161874Y84365482D01*
X47156052Y84379538D01*
X47118449Y84484629D01*
X47114034Y84499185D01*
X47086908Y84607476D01*
X47083946Y84622367D01*
X47067563Y84732816D01*
X47066075Y84747918D01*
X47060596Y84859437D01*
X47060596Y84874625D01*
X47066075Y84986144D01*
X47067563Y85001246D01*
X47083946Y85111695D01*
X47086908Y85126586D01*
X47114034Y85234877D01*
X47118449Y85249433D01*
X47156052Y85354524D01*
X47161874Y85368580D01*
X47209599Y85469488D01*
X47216768Y85482901D01*
X47274159Y85578653D01*
X47282595Y85591277D01*
X47349101Y85680949D01*
X47358752Y85692709D01*
X47433705Y85775407D01*
X47444473Y85786175D01*
X47527171Y85861128D01*
X47538931Y85870779D01*
X47628603Y85937285D01*
X47641227Y85945721D01*
X47736979Y86003112D01*
X47750392Y86010281D01*
X47851300Y86058006D01*
X47865356Y86063828D01*
X47970447Y86101431D01*
X47985003Y86105846D01*
X48093294Y86132972D01*
X48108185Y86135934D01*
X48218634Y86152317D01*
X48233736Y86153805D01*
X48345255Y86159284D01*
X48360443Y86159284D01*
X48471962Y86153805D01*
X48487064Y86152317D01*
X48597513Y86135934D01*
X48612404Y86132972D01*
X48720695Y86105846D01*
X48735251Y86101431D01*
X48840342Y86063828D01*
X48854398Y86058006D01*
X48955306Y86010281D01*
X48968719Y86003112D01*
X49064471Y85945721D01*
X49077095Y85937285D01*
X49166767Y85870779D01*
X49178527Y85861128D01*
X49261225Y85786175D01*
X49271993Y85775407D01*
X49346946Y85692709D01*
X49356597Y85680949D01*
X49423103Y85591277D01*
X49431539Y85578653D01*
X49488930Y85482901D01*
X49496099Y85469488D01*
X49543824Y85368580D01*
X49549646Y85354524D01*
X49587249Y85249433D01*
X49591664Y85234877D01*
X49618790Y85126586D01*
X49621752Y85111695D01*
X49638135Y85001246D01*
X49639623Y84986144D01*
X49645102Y84874625D01*
X49645102Y84859437D01*
X49639623Y84747918D01*
X49638135Y84732816D01*
X49621752Y84622367D01*
X49618790Y84607476D01*
X49591664Y84499185D01*
X49587249Y84484629D01*
X49549646Y84379538D01*
X49543824Y84365482D01*
X49496099Y84264574D01*
X49488930Y84251161D01*
X49431539Y84155409D01*
X49423103Y84142785D01*
X49356597Y84053113D01*
X49346946Y84041353D01*
X49271993Y83958655D01*
X49261225Y83947887D01*
X49178527Y83872934D01*
X49166767Y83863283D01*
X49077095Y83796777D01*
X49064471Y83788341D01*
X48968719Y83730950D01*
X48955306Y83723781D01*
X48854398Y83676056D01*
X48840342Y83670234D01*
X48735251Y83632631D01*
X48720695Y83628216D01*
X48612404Y83601090D01*
X48597513Y83598128D01*
X48487064Y83581745D01*
X48471962Y83580257D01*
X48360443Y83574778D01*
D02*
G37*
%LPC*%
G36*
X45185443Y83574778D02*
X45170255Y83574778D01*
X45058736Y83580257D01*
X45043634Y83581745D01*
X44933185Y83598128D01*
X44918294Y83601090D01*
X44810003Y83628216D01*
X44795447Y83632631D01*
X44690356Y83670234D01*
X44676300Y83676056D01*
X44575392Y83723781D01*
X44561979Y83730950D01*
X44466227Y83788341D01*
X44453603Y83796777D01*
X44363931Y83863283D01*
X44352171Y83872934D01*
X44269473Y83947887D01*
X44258705Y83958655D01*
X44183752Y84041353D01*
X44174101Y84053113D01*
X44107595Y84142785D01*
X44099159Y84155409D01*
X44041768Y84251161D01*
X44034599Y84264574D01*
X43986874Y84365482D01*
X43981052Y84379538D01*
X43943449Y84484629D01*
X43939034Y84499185D01*
X43911908Y84607476D01*
X43908946Y84622367D01*
X43892563Y84732816D01*
X43891075Y84747918D01*
X43885596Y84859437D01*
X43885596Y84874625D01*
X43891075Y84986144D01*
X43892563Y85001246D01*
X43908946Y85111695D01*
X43911908Y85126586D01*
X43939034Y85234877D01*
X43943449Y85249433D01*
X43981052Y85354524D01*
X43986874Y85368580D01*
X44034599Y85469488D01*
X44041768Y85482901D01*
X44099159Y85578653D01*
X44107595Y85591277D01*
X44174101Y85680949D01*
X44183752Y85692709D01*
X44258705Y85775407D01*
X44269473Y85786175D01*
X44352171Y85861128D01*
X44363931Y85870779D01*
X44453603Y85937285D01*
X44466227Y85945721D01*
X44561979Y86003112D01*
X44575392Y86010281D01*
X44676300Y86058006D01*
X44690356Y86063828D01*
X44795447Y86101431D01*
X44810003Y86105846D01*
X44918294Y86132972D01*
X44933185Y86135934D01*
X45043634Y86152317D01*
X45058736Y86153805D01*
X45170255Y86159284D01*
X45185443Y86159284D01*
X45296962Y86153805D01*
X45312064Y86152317D01*
X45422513Y86135934D01*
X45437404Y86132972D01*
X45545695Y86105846D01*
X45560251Y86101431D01*
X45665342Y86063828D01*
X45679398Y86058006D01*
X45780306Y86010281D01*
X45793719Y86003112D01*
X45889471Y85945721D01*
X45902095Y85937285D01*
X45991767Y85870779D01*
X46003527Y85861128D01*
X46086225Y85786175D01*
X46096993Y85775407D01*
X46171946Y85692709D01*
X46181597Y85680949D01*
X46248103Y85591277D01*
X46256539Y85578653D01*
X46313930Y85482901D01*
X46321099Y85469488D01*
X46368824Y85368580D01*
X46374646Y85354524D01*
X46412249Y85249433D01*
X46416664Y85234877D01*
X46443790Y85126586D01*
X46446752Y85111695D01*
X46463135Y85001246D01*
X46464623Y84986144D01*
X46470102Y84874625D01*
X46470102Y84859437D01*
X46464623Y84747918D01*
X46463135Y84732816D01*
X46446752Y84622367D01*
X46443790Y84607476D01*
X46416664Y84499185D01*
X46412249Y84484629D01*
X46374646Y84379538D01*
X46368824Y84365482D01*
X46321099Y84264574D01*
X46313930Y84251161D01*
X46256539Y84155409D01*
X46248103Y84142785D01*
X46181597Y84053113D01*
X46171946Y84041353D01*
X46096993Y83958655D01*
X46086225Y83947887D01*
X46003527Y83872934D01*
X45991767Y83863283D01*
X45902095Y83796777D01*
X45889471Y83788341D01*
X45793719Y83730950D01*
X45780306Y83723781D01*
X45679398Y83676056D01*
X45665342Y83670234D01*
X45560251Y83632631D01*
X45545695Y83628216D01*
X45437404Y83601090D01*
X45422513Y83598128D01*
X45312064Y83581745D01*
X45296962Y83580257D01*
X45185443Y83574778D01*
D02*
G37*
%LPC*%
G36*
X43280465Y82742978D02*
X43265233Y82742978D01*
X43221606Y82745122D01*
X43206479Y82746613D01*
X43163233Y82753027D01*
X43148322Y82755993D01*
X43105938Y82766609D01*
X43091387Y82771023D01*
X43050255Y82785740D01*
X43036197Y82791564D01*
X42996695Y82810247D01*
X42983280Y82817417D01*
X42945788Y82839889D01*
X42933170Y82848321D01*
X42898051Y82874366D01*
X42886300Y82884010D01*
X42853931Y82913348D01*
X42843166Y82924113D01*
X42813828Y82956482D01*
X42804184Y82968233D01*
X42778139Y83003352D01*
X42769707Y83015970D01*
X42747235Y83053462D01*
X42740065Y83066877D01*
X42721382Y83106379D01*
X42715558Y83120437D01*
X42700841Y83161569D01*
X42696427Y83176120D01*
X42685811Y83218504D01*
X42682845Y83233415D01*
X42676431Y83276661D01*
X42674940Y83291788D01*
X42672796Y83335415D01*
X42672796Y83350647D01*
X42674940Y83394274D01*
X42676431Y83409401D01*
X42682845Y83452647D01*
X42685811Y83467558D01*
X42696427Y83509942D01*
X42700841Y83524493D01*
X42715558Y83565625D01*
X42721382Y83579683D01*
X42740065Y83619185D01*
X42747235Y83632600D01*
X42769707Y83670092D01*
X42778139Y83682710D01*
X42804184Y83717829D01*
X42813828Y83729580D01*
X42843166Y83761949D01*
X42853931Y83772714D01*
X42886300Y83802052D01*
X42898051Y83811696D01*
X42933170Y83837741D01*
X42945788Y83846173D01*
X42983280Y83868645D01*
X42996695Y83875815D01*
X43036197Y83894498D01*
X43050255Y83900322D01*
X43091387Y83915039D01*
X43105938Y83919453D01*
X43148322Y83930069D01*
X43163233Y83933035D01*
X43206479Y83939449D01*
X43221606Y83940940D01*
X43265233Y83943084D01*
X43280465Y83943084D01*
X43324092Y83940940D01*
X43339219Y83939449D01*
X43382465Y83933035D01*
X43397376Y83930069D01*
X43439760Y83919453D01*
X43454311Y83915039D01*
X43495443Y83900322D01*
X43509501Y83894498D01*
X43549003Y83875815D01*
X43562418Y83868645D01*
X43599910Y83846173D01*
X43612528Y83837741D01*
X43647647Y83811696D01*
X43659398Y83802052D01*
X43691767Y83772714D01*
X43702532Y83761949D01*
X43731870Y83729580D01*
X43741514Y83717829D01*
X43767559Y83682710D01*
X43775991Y83670092D01*
X43798463Y83632600D01*
X43805633Y83619185D01*
X43824316Y83579683D01*
X43830140Y83565625D01*
X43844857Y83524493D01*
X43849271Y83509942D01*
X43859887Y83467558D01*
X43862853Y83452647D01*
X43869267Y83409401D01*
X43870758Y83394274D01*
X43872902Y83350647D01*
X43872902Y83335415D01*
X43870758Y83291788D01*
X43869267Y83276661D01*
X43862853Y83233415D01*
X43859887Y83218504D01*
X43849271Y83176120D01*
X43844857Y83161569D01*
X43830140Y83120437D01*
X43824316Y83106379D01*
X43805633Y83066877D01*
X43798463Y83053462D01*
X43775991Y83015970D01*
X43767559Y83003352D01*
X43741514Y82968233D01*
X43731870Y82956482D01*
X43702532Y82924113D01*
X43691767Y82913348D01*
X43659398Y82884010D01*
X43647647Y82874366D01*
X43612528Y82848321D01*
X43599910Y82839889D01*
X43562418Y82817417D01*
X43549003Y82810247D01*
X43509501Y82791564D01*
X43495443Y82785740D01*
X43454311Y82771023D01*
X43439760Y82766609D01*
X43397376Y82755993D01*
X43382465Y82753027D01*
X43339219Y82746613D01*
X43324092Y82745122D01*
X43280465Y82742978D01*
D02*
G37*
%LPC*%
G36*
X48360465Y81726978D02*
X48345233Y81726978D01*
X48301606Y81729122D01*
X48286479Y81730613D01*
X48243233Y81737027D01*
X48228322Y81739993D01*
X48185938Y81750609D01*
X48171387Y81755023D01*
X48130255Y81769740D01*
X48116197Y81775564D01*
X48076695Y81794247D01*
X48063280Y81801417D01*
X48025788Y81823889D01*
X48013170Y81832321D01*
X47978051Y81858366D01*
X47966300Y81868010D01*
X47933931Y81897348D01*
X47923166Y81908113D01*
X47893828Y81940482D01*
X47884184Y81952233D01*
X47858139Y81987352D01*
X47849707Y81999970D01*
X47827235Y82037462D01*
X47820065Y82050877D01*
X47801382Y82090379D01*
X47795558Y82104437D01*
X47780841Y82145569D01*
X47776427Y82160120D01*
X47765811Y82202504D01*
X47762845Y82217415D01*
X47756431Y82260661D01*
X47754940Y82275788D01*
X47752796Y82319415D01*
X47752796Y82334647D01*
X47754940Y82378274D01*
X47756431Y82393401D01*
X47762845Y82436647D01*
X47765811Y82451558D01*
X47776427Y82493942D01*
X47780841Y82508493D01*
X47795558Y82549625D01*
X47801382Y82563683D01*
X47820065Y82603185D01*
X47827235Y82616600D01*
X47849707Y82654092D01*
X47858139Y82666710D01*
X47884184Y82701829D01*
X47893828Y82713580D01*
X47923166Y82745949D01*
X47933931Y82756714D01*
X47966300Y82786052D01*
X47978051Y82795696D01*
X48013170Y82821741D01*
X48025788Y82830173D01*
X48063280Y82852645D01*
X48076695Y82859815D01*
X48116197Y82878498D01*
X48130255Y82884322D01*
X48171387Y82899039D01*
X48185938Y82903453D01*
X48228322Y82914069D01*
X48243233Y82917035D01*
X48286479Y82923449D01*
X48301606Y82924940D01*
X48345233Y82927084D01*
X48360465Y82927084D01*
X48404092Y82924940D01*
X48419219Y82923449D01*
X48462465Y82917035D01*
X48477376Y82914069D01*
X48519760Y82903453D01*
X48534311Y82899039D01*
X48575443Y82884322D01*
X48589501Y82878498D01*
X48629003Y82859815D01*
X48642418Y82852645D01*
X48679910Y82830173D01*
X48692528Y82821741D01*
X48727647Y82795696D01*
X48739398Y82786052D01*
X48771767Y82756714D01*
X48782532Y82745949D01*
X48811870Y82713580D01*
X48821514Y82701829D01*
X48847559Y82666710D01*
X48855991Y82654092D01*
X48878463Y82616600D01*
X48885633Y82603185D01*
X48904316Y82563683D01*
X48910140Y82549625D01*
X48924857Y82508493D01*
X48929271Y82493942D01*
X48939887Y82451558D01*
X48942853Y82436647D01*
X48949267Y82393401D01*
X48950758Y82378274D01*
X48952902Y82334647D01*
X48952902Y82319415D01*
X48950758Y82275788D01*
X48949267Y82260661D01*
X48942853Y82217415D01*
X48939887Y82202504D01*
X48929271Y82160120D01*
X48924857Y82145569D01*
X48910140Y82104437D01*
X48904316Y82090379D01*
X48885633Y82050877D01*
X48878463Y82037462D01*
X48855991Y81999970D01*
X48847559Y81987352D01*
X48821514Y81952233D01*
X48811870Y81940482D01*
X48782532Y81908113D01*
X48771767Y81897348D01*
X48739398Y81868010D01*
X48727647Y81858366D01*
X48692528Y81832321D01*
X48679910Y81823889D01*
X48642418Y81801417D01*
X48629003Y81794247D01*
X48589501Y81775564D01*
X48575443Y81769740D01*
X48534311Y81755023D01*
X48519760Y81750609D01*
X48477376Y81739993D01*
X48462465Y81737027D01*
X48419219Y81730613D01*
X48404092Y81729122D01*
X48360465Y81726978D01*
D02*
G37*
%LPC*%
G36*
X43280465Y80710978D02*
X43265233Y80710978D01*
X43221606Y80713122D01*
X43206479Y80714613D01*
X43163233Y80721027D01*
X43148322Y80723993D01*
X43105938Y80734609D01*
X43091387Y80739023D01*
X43050255Y80753740D01*
X43036197Y80759564D01*
X42996695Y80778247D01*
X42983280Y80785417D01*
X42945788Y80807889D01*
X42933170Y80816321D01*
X42898051Y80842366D01*
X42886300Y80852010D01*
X42853931Y80881348D01*
X42843166Y80892113D01*
X42813828Y80924482D01*
X42804184Y80936233D01*
X42778139Y80971352D01*
X42769707Y80983970D01*
X42747235Y81021462D01*
X42740065Y81034877D01*
X42721382Y81074379D01*
X42715558Y81088437D01*
X42700841Y81129569D01*
X42696427Y81144120D01*
X42685811Y81186504D01*
X42682845Y81201415D01*
X42676431Y81244661D01*
X42674940Y81259788D01*
X42672796Y81303415D01*
X42672796Y81318647D01*
X42674940Y81362274D01*
X42676431Y81377401D01*
X42682845Y81420647D01*
X42685811Y81435558D01*
X42696427Y81477942D01*
X42700841Y81492493D01*
X42715558Y81533625D01*
X42721382Y81547683D01*
X42740065Y81587185D01*
X42747235Y81600600D01*
X42769707Y81638092D01*
X42778139Y81650710D01*
X42804184Y81685829D01*
X42813828Y81697580D01*
X42843166Y81729949D01*
X42853931Y81740714D01*
X42886300Y81770052D01*
X42898051Y81779696D01*
X42933170Y81805741D01*
X42945788Y81814173D01*
X42983280Y81836645D01*
X42996695Y81843815D01*
X43036197Y81862498D01*
X43050255Y81868322D01*
X43091387Y81883039D01*
X43105938Y81887453D01*
X43148322Y81898069D01*
X43163233Y81901035D01*
X43206479Y81907449D01*
X43221606Y81908940D01*
X43265233Y81911084D01*
X43280465Y81911084D01*
X43324092Y81908940D01*
X43339219Y81907449D01*
X43382465Y81901035D01*
X43397376Y81898069D01*
X43439760Y81887453D01*
X43454311Y81883039D01*
X43495443Y81868322D01*
X43509501Y81862498D01*
X43549003Y81843815D01*
X43562418Y81836645D01*
X43599910Y81814173D01*
X43612528Y81805741D01*
X43647647Y81779696D01*
X43659398Y81770052D01*
X43691767Y81740714D01*
X43702532Y81729949D01*
X43731870Y81697580D01*
X43741514Y81685829D01*
X43767559Y81650710D01*
X43775991Y81638092D01*
X43798463Y81600600D01*
X43805633Y81587185D01*
X43824316Y81547683D01*
X43830140Y81533625D01*
X43844857Y81492493D01*
X43849271Y81477942D01*
X43859887Y81435558D01*
X43862853Y81420647D01*
X43869267Y81377401D01*
X43870758Y81362274D01*
X43872902Y81318647D01*
X43872902Y81303415D01*
X43870758Y81259788D01*
X43869267Y81244661D01*
X43862853Y81201415D01*
X43859887Y81186504D01*
X43849271Y81144120D01*
X43844857Y81129569D01*
X43830140Y81088437D01*
X43824316Y81074379D01*
X43805633Y81034877D01*
X43798463Y81021462D01*
X43775991Y80983970D01*
X43767559Y80971352D01*
X43741514Y80936233D01*
X43731870Y80924482D01*
X43702532Y80892113D01*
X43691767Y80881348D01*
X43659398Y80852010D01*
X43647647Y80842366D01*
X43612528Y80816321D01*
X43599910Y80807889D01*
X43562418Y80785417D01*
X43549003Y80778247D01*
X43509501Y80759564D01*
X43495443Y80753740D01*
X43454311Y80739023D01*
X43439760Y80734609D01*
X43397376Y80723993D01*
X43382465Y80721027D01*
X43339219Y80714613D01*
X43324092Y80713122D01*
X43280465Y80710978D01*
D02*
G37*
%LPC*%
G36*
X48360443Y78494778D02*
X48345255Y78494778D01*
X48233736Y78500257D01*
X48218634Y78501745D01*
X48108185Y78518128D01*
X48093294Y78521090D01*
X47985003Y78548216D01*
X47970447Y78552631D01*
X47865356Y78590234D01*
X47851300Y78596056D01*
X47750392Y78643781D01*
X47736979Y78650950D01*
X47641227Y78708341D01*
X47628603Y78716777D01*
X47538931Y78783283D01*
X47527171Y78792934D01*
X47444473Y78867887D01*
X47433705Y78878655D01*
X47358752Y78961353D01*
X47349101Y78973113D01*
X47282595Y79062785D01*
X47274159Y79075409D01*
X47216768Y79171161D01*
X47209599Y79184574D01*
X47161874Y79285482D01*
X47156052Y79299538D01*
X47118449Y79404629D01*
X47114034Y79419185D01*
X47086908Y79527476D01*
X47083946Y79542367D01*
X47067563Y79652816D01*
X47066075Y79667918D01*
X47060596Y79779437D01*
X47060596Y79794625D01*
X47066075Y79906144D01*
X47067563Y79921246D01*
X47083946Y80031695D01*
X47086908Y80046586D01*
X47114034Y80154877D01*
X47118449Y80169433D01*
X47156052Y80274524D01*
X47161874Y80288580D01*
X47209599Y80389488D01*
X47216768Y80402901D01*
X47274159Y80498653D01*
X47282595Y80511277D01*
X47349101Y80600949D01*
X47358752Y80612709D01*
X47433705Y80695407D01*
X47444473Y80706175D01*
X47527171Y80781128D01*
X47538931Y80790779D01*
X47628603Y80857285D01*
X47641227Y80865721D01*
X47736979Y80923112D01*
X47750392Y80930281D01*
X47851300Y80978006D01*
X47865356Y80983828D01*
X47970447Y81021431D01*
X47985003Y81025846D01*
X48093294Y81052972D01*
X48108185Y81055934D01*
X48218634Y81072317D01*
X48233736Y81073805D01*
X48345255Y81079284D01*
X48360443Y81079284D01*
X48471962Y81073805D01*
X48487064Y81072317D01*
X48597513Y81055934D01*
X48612404Y81052972D01*
X48720695Y81025846D01*
X48735251Y81021431D01*
X48840342Y80983828D01*
X48854398Y80978006D01*
X48955306Y80930281D01*
X48968719Y80923112D01*
X49064471Y80865721D01*
X49077095Y80857285D01*
X49166767Y80790779D01*
X49178527Y80781128D01*
X49261225Y80706175D01*
X49271993Y80695407D01*
X49346946Y80612709D01*
X49356597Y80600949D01*
X49423103Y80511277D01*
X49431539Y80498653D01*
X49488930Y80402901D01*
X49496099Y80389488D01*
X49543824Y80288580D01*
X49549646Y80274524D01*
X49587249Y80169433D01*
X49591664Y80154877D01*
X49618790Y80046586D01*
X49621752Y80031695D01*
X49638135Y79921246D01*
X49639623Y79906144D01*
X49645102Y79794625D01*
X49645102Y79779437D01*
X49639623Y79667918D01*
X49638135Y79652816D01*
X49621752Y79542367D01*
X49618790Y79527476D01*
X49591664Y79419185D01*
X49587249Y79404629D01*
X49549646Y79299538D01*
X49543824Y79285482D01*
X49496099Y79184574D01*
X49488930Y79171161D01*
X49431539Y79075409D01*
X49423103Y79062785D01*
X49356597Y78973113D01*
X49346946Y78961353D01*
X49271993Y78878655D01*
X49261225Y78867887D01*
X49178527Y78792934D01*
X49166767Y78783283D01*
X49077095Y78716777D01*
X49064471Y78708341D01*
X48968719Y78650950D01*
X48955306Y78643781D01*
X48854398Y78596056D01*
X48840342Y78590234D01*
X48735251Y78552631D01*
X48720695Y78548216D01*
X48612404Y78521090D01*
X48597513Y78518128D01*
X48487064Y78501745D01*
X48471962Y78500257D01*
X48360443Y78494778D01*
D02*
G37*
%LPC*%
G36*
X45185443Y78494778D02*
X45170255Y78494778D01*
X45058736Y78500257D01*
X45043634Y78501745D01*
X44933185Y78518128D01*
X44918294Y78521090D01*
X44810003Y78548216D01*
X44795447Y78552631D01*
X44690356Y78590234D01*
X44676300Y78596056D01*
X44575392Y78643781D01*
X44561979Y78650950D01*
X44466227Y78708341D01*
X44453603Y78716777D01*
X44363931Y78783283D01*
X44352171Y78792934D01*
X44269473Y78867887D01*
X44258705Y78878655D01*
X44183752Y78961353D01*
X44174101Y78973113D01*
X44107595Y79062785D01*
X44099159Y79075409D01*
X44041768Y79171161D01*
X44034599Y79184574D01*
X43986874Y79285482D01*
X43981052Y79299538D01*
X43943449Y79404629D01*
X43939034Y79419185D01*
X43911908Y79527476D01*
X43908946Y79542367D01*
X43892563Y79652816D01*
X43891075Y79667918D01*
X43885596Y79779437D01*
X43885596Y79794625D01*
X43891075Y79906144D01*
X43892563Y79921246D01*
X43908946Y80031695D01*
X43911908Y80046586D01*
X43939034Y80154877D01*
X43943449Y80169433D01*
X43981052Y80274524D01*
X43986874Y80288580D01*
X44034599Y80389488D01*
X44041768Y80402901D01*
X44099159Y80498653D01*
X44107595Y80511277D01*
X44174101Y80600949D01*
X44183752Y80612709D01*
X44258705Y80695407D01*
X44269473Y80706175D01*
X44352171Y80781128D01*
X44363931Y80790779D01*
X44453603Y80857285D01*
X44466227Y80865721D01*
X44561979Y80923112D01*
X44575392Y80930281D01*
X44676300Y80978006D01*
X44690356Y80983828D01*
X44795447Y81021431D01*
X44810003Y81025846D01*
X44918294Y81052972D01*
X44933185Y81055934D01*
X45043634Y81072317D01*
X45058736Y81073805D01*
X45170255Y81079284D01*
X45185443Y81079284D01*
X45296962Y81073805D01*
X45312064Y81072317D01*
X45422513Y81055934D01*
X45437404Y81052972D01*
X45545695Y81025846D01*
X45560251Y81021431D01*
X45665342Y80983828D01*
X45679398Y80978006D01*
X45780306Y80930281D01*
X45793719Y80923112D01*
X45889471Y80865721D01*
X45902095Y80857285D01*
X45991767Y80790779D01*
X46003527Y80781128D01*
X46086225Y80706175D01*
X46096993Y80695407D01*
X46171946Y80612709D01*
X46181597Y80600949D01*
X46248103Y80511277D01*
X46256539Y80498653D01*
X46313930Y80402901D01*
X46321099Y80389488D01*
X46368824Y80288580D01*
X46374646Y80274524D01*
X46412249Y80169433D01*
X46416664Y80154877D01*
X46443790Y80046586D01*
X46446752Y80031695D01*
X46463135Y79921246D01*
X46464623Y79906144D01*
X46470102Y79794625D01*
X46470102Y79779437D01*
X46464623Y79667918D01*
X46463135Y79652816D01*
X46446752Y79542367D01*
X46443790Y79527476D01*
X46416664Y79419185D01*
X46412249Y79404629D01*
X46374646Y79299538D01*
X46368824Y79285482D01*
X46321099Y79184574D01*
X46313930Y79171161D01*
X46256539Y79075409D01*
X46248103Y79062785D01*
X46181597Y78973113D01*
X46171946Y78961353D01*
X46096993Y78878655D01*
X46086225Y78867887D01*
X46003527Y78792934D01*
X45991767Y78783283D01*
X45902095Y78716777D01*
X45889471Y78708341D01*
X45793719Y78650950D01*
X45780306Y78643781D01*
X45679398Y78596056D01*
X45665342Y78590234D01*
X45560251Y78552631D01*
X45545695Y78548216D01*
X45437404Y78521090D01*
X45422513Y78518128D01*
X45312064Y78501745D01*
X45296962Y78500257D01*
X45185443Y78494778D01*
D02*
G37*
%LPD*%
G36*
X51390000Y510000D02*
X51429004Y517920D01*
X51461829Y540425D01*
X51483277Y573952D01*
X51490000Y610000D01*
X51490000Y45390000D01*
X51482080Y45429004D01*
X51459575Y45461829D01*
X51426048Y45483277D01*
X51390000Y45490000D01*
X610000Y45490000D01*
X570996Y45482080D01*
X538171Y45459575D01*
X516723Y45426048D01*
X510000Y45390000D01*
X510000Y610000D01*
X517920Y570996D01*
X540425Y538171D01*
X573952Y516723D01*
X610000Y510000D01*
X51390000Y510000D01*
D02*
G37*
%LPC*%
G36*
X48360443Y37574778D02*
X48345255Y37574778D01*
X48233736Y37580257D01*
X48218634Y37581745D01*
X48108185Y37598128D01*
X48093294Y37601090D01*
X47985003Y37628216D01*
X47970447Y37632631D01*
X47865356Y37670234D01*
X47851300Y37676056D01*
X47750392Y37723781D01*
X47736979Y37730950D01*
X47641227Y37788341D01*
X47628603Y37796777D01*
X47538931Y37863283D01*
X47527171Y37872934D01*
X47444473Y37947887D01*
X47433705Y37958655D01*
X47358752Y38041353D01*
X47349101Y38053113D01*
X47282595Y38142785D01*
X47274159Y38155409D01*
X47216768Y38251161D01*
X47209599Y38264574D01*
X47161874Y38365482D01*
X47156052Y38379538D01*
X47118449Y38484629D01*
X47114034Y38499185D01*
X47086908Y38607476D01*
X47083946Y38622367D01*
X47067563Y38732816D01*
X47066075Y38747918D01*
X47060596Y38859437D01*
X47060596Y38874625D01*
X47066075Y38986144D01*
X47067563Y39001246D01*
X47083946Y39111695D01*
X47086908Y39126586D01*
X47114034Y39234877D01*
X47118449Y39249433D01*
X47156052Y39354524D01*
X47161874Y39368580D01*
X47209599Y39469488D01*
X47216768Y39482901D01*
X47274159Y39578653D01*
X47282595Y39591277D01*
X47349101Y39680949D01*
X47358752Y39692709D01*
X47433705Y39775407D01*
X47444473Y39786175D01*
X47527171Y39861128D01*
X47538931Y39870779D01*
X47628603Y39937285D01*
X47641227Y39945721D01*
X47736979Y40003112D01*
X47750392Y40010281D01*
X47851300Y40058006D01*
X47865356Y40063828D01*
X47970447Y40101431D01*
X47985003Y40105846D01*
X48093294Y40132972D01*
X48108185Y40135934D01*
X48218634Y40152317D01*
X48233736Y40153805D01*
X48345255Y40159284D01*
X48360443Y40159284D01*
X48471962Y40153805D01*
X48487064Y40152317D01*
X48597513Y40135934D01*
X48612404Y40132972D01*
X48720695Y40105846D01*
X48735251Y40101431D01*
X48840342Y40063828D01*
X48854398Y40058006D01*
X48955306Y40010281D01*
X48968719Y40003112D01*
X49064471Y39945721D01*
X49077095Y39937285D01*
X49166767Y39870779D01*
X49178527Y39861128D01*
X49261225Y39786175D01*
X49271993Y39775407D01*
X49346946Y39692709D01*
X49356597Y39680949D01*
X49423103Y39591277D01*
X49431539Y39578653D01*
X49488930Y39482901D01*
X49496099Y39469488D01*
X49543824Y39368580D01*
X49549646Y39354524D01*
X49587249Y39249433D01*
X49591664Y39234877D01*
X49618790Y39126586D01*
X49621752Y39111695D01*
X49638135Y39001246D01*
X49639623Y38986144D01*
X49645102Y38874625D01*
X49645102Y38859437D01*
X49639623Y38747918D01*
X49638135Y38732816D01*
X49621752Y38622367D01*
X49618790Y38607476D01*
X49591664Y38499185D01*
X49587249Y38484629D01*
X49549646Y38379538D01*
X49543824Y38365482D01*
X49496099Y38264574D01*
X49488930Y38251161D01*
X49431539Y38155409D01*
X49423103Y38142785D01*
X49356597Y38053113D01*
X49346946Y38041353D01*
X49271993Y37958655D01*
X49261225Y37947887D01*
X49178527Y37872934D01*
X49166767Y37863283D01*
X49077095Y37796777D01*
X49064471Y37788341D01*
X48968719Y37730950D01*
X48955306Y37723781D01*
X48854398Y37676056D01*
X48840342Y37670234D01*
X48735251Y37632631D01*
X48720695Y37628216D01*
X48612404Y37601090D01*
X48597513Y37598128D01*
X48487064Y37581745D01*
X48471962Y37580257D01*
X48360443Y37574778D01*
D02*
G37*
%LPC*%
G36*
X45185443Y37574778D02*
X45170255Y37574778D01*
X45058736Y37580257D01*
X45043634Y37581745D01*
X44933185Y37598128D01*
X44918294Y37601090D01*
X44810003Y37628216D01*
X44795447Y37632631D01*
X44690356Y37670234D01*
X44676300Y37676056D01*
X44575392Y37723781D01*
X44561979Y37730950D01*
X44466227Y37788341D01*
X44453603Y37796777D01*
X44363931Y37863283D01*
X44352171Y37872934D01*
X44269473Y37947887D01*
X44258705Y37958655D01*
X44183752Y38041353D01*
X44174101Y38053113D01*
X44107595Y38142785D01*
X44099159Y38155409D01*
X44041768Y38251161D01*
X44034599Y38264574D01*
X43986874Y38365482D01*
X43981052Y38379538D01*
X43943449Y38484629D01*
X43939034Y38499185D01*
X43911908Y38607476D01*
X43908946Y38622367D01*
X43892563Y38732816D01*
X43891075Y38747918D01*
X43885596Y38859437D01*
X43885596Y38874625D01*
X43891075Y38986144D01*
X43892563Y39001246D01*
X43908946Y39111695D01*
X43911908Y39126586D01*
X43939034Y39234877D01*
X43943449Y39249433D01*
X43981052Y39354524D01*
X43986874Y39368580D01*
X44034599Y39469488D01*
X44041768Y39482901D01*
X44099159Y39578653D01*
X44107595Y39591277D01*
X44174101Y39680949D01*
X44183752Y39692709D01*
X44258705Y39775407D01*
X44269473Y39786175D01*
X44352171Y39861128D01*
X44363931Y39870779D01*
X44453603Y39937285D01*
X44466227Y39945721D01*
X44561979Y40003112D01*
X44575392Y40010281D01*
X44676300Y40058006D01*
X44690356Y40063828D01*
X44795447Y40101431D01*
X44810003Y40105846D01*
X44918294Y40132972D01*
X44933185Y40135934D01*
X45043634Y40152317D01*
X45058736Y40153805D01*
X45170255Y40159284D01*
X45185443Y40159284D01*
X45296962Y40153805D01*
X45312064Y40152317D01*
X45422513Y40135934D01*
X45437404Y40132972D01*
X45545695Y40105846D01*
X45560251Y40101431D01*
X45665342Y40063828D01*
X45679398Y40058006D01*
X45780306Y40010281D01*
X45793719Y40003112D01*
X45889471Y39945721D01*
X45902095Y39937285D01*
X45991767Y39870779D01*
X46003527Y39861128D01*
X46086225Y39786175D01*
X46096993Y39775407D01*
X46171946Y39692709D01*
X46181597Y39680949D01*
X46248103Y39591277D01*
X46256539Y39578653D01*
X46313930Y39482901D01*
X46321099Y39469488D01*
X46368824Y39368580D01*
X46374646Y39354524D01*
X46412249Y39249433D01*
X46416664Y39234877D01*
X46443790Y39126586D01*
X46446752Y39111695D01*
X46463135Y39001246D01*
X46464623Y38986144D01*
X46470102Y38874625D01*
X46470102Y38859437D01*
X46464623Y38747918D01*
X46463135Y38732816D01*
X46446752Y38622367D01*
X46443790Y38607476D01*
X46416664Y38499185D01*
X46412249Y38484629D01*
X46374646Y38379538D01*
X46368824Y38365482D01*
X46321099Y38264574D01*
X46313930Y38251161D01*
X46256539Y38155409D01*
X46248103Y38142785D01*
X46181597Y38053113D01*
X46171946Y38041353D01*
X46096993Y37958655D01*
X46086225Y37947887D01*
X46003527Y37872934D01*
X45991767Y37863283D01*
X45902095Y37796777D01*
X45889471Y37788341D01*
X45793719Y37730950D01*
X45780306Y37723781D01*
X45679398Y37676056D01*
X45665342Y37670234D01*
X45560251Y37632631D01*
X45545695Y37628216D01*
X45437404Y37601090D01*
X45422513Y37598128D01*
X45312064Y37581745D01*
X45296962Y37580257D01*
X45185443Y37574778D01*
D02*
G37*
%LPC*%
G36*
X43280465Y36742978D02*
X43265233Y36742978D01*
X43221606Y36745122D01*
X43206479Y36746613D01*
X43163233Y36753027D01*
X43148322Y36755993D01*
X43105938Y36766609D01*
X43091387Y36771023D01*
X43050255Y36785740D01*
X43036197Y36791564D01*
X42996695Y36810247D01*
X42983280Y36817417D01*
X42945788Y36839889D01*
X42933170Y36848321D01*
X42898051Y36874366D01*
X42886300Y36884010D01*
X42853931Y36913348D01*
X42843166Y36924113D01*
X42813828Y36956482D01*
X42804184Y36968233D01*
X42778139Y37003352D01*
X42769707Y37015970D01*
X42747235Y37053462D01*
X42740065Y37066877D01*
X42721382Y37106379D01*
X42715558Y37120437D01*
X42700841Y37161569D01*
X42696427Y37176120D01*
X42685811Y37218504D01*
X42682845Y37233415D01*
X42676431Y37276661D01*
X42674940Y37291788D01*
X42672796Y37335415D01*
X42672796Y37350647D01*
X42674940Y37394274D01*
X42676431Y37409401D01*
X42682845Y37452647D01*
X42685811Y37467558D01*
X42696427Y37509942D01*
X42700841Y37524493D01*
X42715558Y37565625D01*
X42721382Y37579683D01*
X42740065Y37619185D01*
X42747235Y37632600D01*
X42769707Y37670092D01*
X42778139Y37682710D01*
X42804184Y37717829D01*
X42813828Y37729580D01*
X42843166Y37761949D01*
X42853931Y37772714D01*
X42886300Y37802052D01*
X42898051Y37811696D01*
X42933170Y37837741D01*
X42945788Y37846173D01*
X42983280Y37868645D01*
X42996695Y37875815D01*
X43036197Y37894498D01*
X43050255Y37900322D01*
X43091387Y37915039D01*
X43105938Y37919453D01*
X43148322Y37930069D01*
X43163233Y37933035D01*
X43206479Y37939449D01*
X43221606Y37940940D01*
X43265233Y37943084D01*
X43280465Y37943084D01*
X43324092Y37940940D01*
X43339219Y37939449D01*
X43382465Y37933035D01*
X43397376Y37930069D01*
X43439760Y37919453D01*
X43454311Y37915039D01*
X43495443Y37900322D01*
X43509501Y37894498D01*
X43549003Y37875815D01*
X43562418Y37868645D01*
X43599910Y37846173D01*
X43612528Y37837741D01*
X43647647Y37811696D01*
X43659398Y37802052D01*
X43691767Y37772714D01*
X43702532Y37761949D01*
X43731870Y37729580D01*
X43741514Y37717829D01*
X43767559Y37682710D01*
X43775991Y37670092D01*
X43798463Y37632600D01*
X43805633Y37619185D01*
X43824316Y37579683D01*
X43830140Y37565625D01*
X43844857Y37524493D01*
X43849271Y37509942D01*
X43859887Y37467558D01*
X43862853Y37452647D01*
X43869267Y37409401D01*
X43870758Y37394274D01*
X43872902Y37350647D01*
X43872902Y37335415D01*
X43870758Y37291788D01*
X43869267Y37276661D01*
X43862853Y37233415D01*
X43859887Y37218504D01*
X43849271Y37176120D01*
X43844857Y37161569D01*
X43830140Y37120437D01*
X43824316Y37106379D01*
X43805633Y37066877D01*
X43798463Y37053462D01*
X43775991Y37015970D01*
X43767559Y37003352D01*
X43741514Y36968233D01*
X43731870Y36956482D01*
X43702532Y36924113D01*
X43691767Y36913348D01*
X43659398Y36884010D01*
X43647647Y36874366D01*
X43612528Y36848321D01*
X43599910Y36839889D01*
X43562418Y36817417D01*
X43549003Y36810247D01*
X43509501Y36791564D01*
X43495443Y36785740D01*
X43454311Y36771023D01*
X43439760Y36766609D01*
X43397376Y36755993D01*
X43382465Y36753027D01*
X43339219Y36746613D01*
X43324092Y36745122D01*
X43280465Y36742978D01*
D02*
G37*
%LPC*%
G36*
X48360465Y35726978D02*
X48345233Y35726978D01*
X48301606Y35729122D01*
X48286479Y35730613D01*
X48243233Y35737027D01*
X48228322Y35739993D01*
X48185938Y35750609D01*
X48171387Y35755023D01*
X48130255Y35769740D01*
X48116197Y35775564D01*
X48076695Y35794247D01*
X48063280Y35801417D01*
X48025788Y35823889D01*
X48013170Y35832321D01*
X47978051Y35858366D01*
X47966300Y35868010D01*
X47933931Y35897348D01*
X47923166Y35908113D01*
X47893828Y35940482D01*
X47884184Y35952233D01*
X47858139Y35987352D01*
X47849707Y35999970D01*
X47827235Y36037462D01*
X47820065Y36050877D01*
X47801382Y36090379D01*
X47795558Y36104437D01*
X47780841Y36145569D01*
X47776427Y36160120D01*
X47765811Y36202504D01*
X47762845Y36217415D01*
X47756431Y36260661D01*
X47754940Y36275788D01*
X47752796Y36319415D01*
X47752796Y36334647D01*
X47754940Y36378274D01*
X47756431Y36393401D01*
X47762845Y36436647D01*
X47765811Y36451558D01*
X47776427Y36493942D01*
X47780841Y36508493D01*
X47795558Y36549625D01*
X47801382Y36563683D01*
X47820065Y36603185D01*
X47827235Y36616600D01*
X47849707Y36654092D01*
X47858139Y36666710D01*
X47884184Y36701829D01*
X47893828Y36713580D01*
X47923166Y36745949D01*
X47933931Y36756714D01*
X47966300Y36786052D01*
X47978051Y36795696D01*
X48013170Y36821741D01*
X48025788Y36830173D01*
X48063280Y36852645D01*
X48076695Y36859815D01*
X48116197Y36878498D01*
X48130255Y36884322D01*
X48171387Y36899039D01*
X48185938Y36903453D01*
X48228322Y36914069D01*
X48243233Y36917035D01*
X48286479Y36923449D01*
X48301606Y36924940D01*
X48345233Y36927084D01*
X48360465Y36927084D01*
X48404092Y36924940D01*
X48419219Y36923449D01*
X48462465Y36917035D01*
X48477376Y36914069D01*
X48519760Y36903453D01*
X48534311Y36899039D01*
X48575443Y36884322D01*
X48589501Y36878498D01*
X48629003Y36859815D01*
X48642418Y36852645D01*
X48679910Y36830173D01*
X48692528Y36821741D01*
X48727647Y36795696D01*
X48739398Y36786052D01*
X48771767Y36756714D01*
X48782532Y36745949D01*
X48811870Y36713580D01*
X48821514Y36701829D01*
X48847559Y36666710D01*
X48855991Y36654092D01*
X48878463Y36616600D01*
X48885633Y36603185D01*
X48904316Y36563683D01*
X48910140Y36549625D01*
X48924857Y36508493D01*
X48929271Y36493942D01*
X48939887Y36451558D01*
X48942853Y36436647D01*
X48949267Y36393401D01*
X48950758Y36378274D01*
X48952902Y36334647D01*
X48952902Y36319415D01*
X48950758Y36275788D01*
X48949267Y36260661D01*
X48942853Y36217415D01*
X48939887Y36202504D01*
X48929271Y36160120D01*
X48924857Y36145569D01*
X48910140Y36104437D01*
X48904316Y36090379D01*
X48885633Y36050877D01*
X48878463Y36037462D01*
X48855991Y35999970D01*
X48847559Y35987352D01*
X48821514Y35952233D01*
X48811870Y35940482D01*
X48782532Y35908113D01*
X48771767Y35897348D01*
X48739398Y35868010D01*
X48727647Y35858366D01*
X48692528Y35832321D01*
X48679910Y35823889D01*
X48642418Y35801417D01*
X48629003Y35794247D01*
X48589501Y35775564D01*
X48575443Y35769740D01*
X48534311Y35755023D01*
X48519760Y35750609D01*
X48477376Y35739993D01*
X48462465Y35737027D01*
X48419219Y35730613D01*
X48404092Y35729122D01*
X48360465Y35726978D01*
D02*
G37*
%LPC*%
G36*
X43280465Y34710978D02*
X43265233Y34710978D01*
X43221606Y34713122D01*
X43206479Y34714613D01*
X43163233Y34721027D01*
X43148322Y34723993D01*
X43105938Y34734609D01*
X43091387Y34739023D01*
X43050255Y34753740D01*
X43036197Y34759564D01*
X42996695Y34778247D01*
X42983280Y34785417D01*
X42945788Y34807889D01*
X42933170Y34816321D01*
X42898051Y34842366D01*
X42886300Y34852010D01*
X42853931Y34881348D01*
X42843166Y34892113D01*
X42813828Y34924482D01*
X42804184Y34936233D01*
X42778139Y34971352D01*
X42769707Y34983970D01*
X42747235Y35021462D01*
X42740065Y35034877D01*
X42721382Y35074379D01*
X42715558Y35088437D01*
X42700841Y35129569D01*
X42696427Y35144120D01*
X42685811Y35186504D01*
X42682845Y35201415D01*
X42676431Y35244661D01*
X42674940Y35259788D01*
X42672796Y35303415D01*
X42672796Y35318647D01*
X42674940Y35362274D01*
X42676431Y35377401D01*
X42682845Y35420647D01*
X42685811Y35435558D01*
X42696427Y35477942D01*
X42700841Y35492493D01*
X42715558Y35533625D01*
X42721382Y35547683D01*
X42740065Y35587185D01*
X42747235Y35600600D01*
X42769707Y35638092D01*
X42778139Y35650710D01*
X42804184Y35685829D01*
X42813828Y35697580D01*
X42843166Y35729949D01*
X42853931Y35740714D01*
X42886300Y35770052D01*
X42898051Y35779696D01*
X42933170Y35805741D01*
X42945788Y35814173D01*
X42983280Y35836645D01*
X42996695Y35843815D01*
X43036197Y35862498D01*
X43050255Y35868322D01*
X43091387Y35883039D01*
X43105938Y35887453D01*
X43148322Y35898069D01*
X43163233Y35901035D01*
X43206479Y35907449D01*
X43221606Y35908940D01*
X43265233Y35911084D01*
X43280465Y35911084D01*
X43324092Y35908940D01*
X43339219Y35907449D01*
X43382465Y35901035D01*
X43397376Y35898069D01*
X43439760Y35887453D01*
X43454311Y35883039D01*
X43495443Y35868322D01*
X43509501Y35862498D01*
X43549003Y35843815D01*
X43562418Y35836645D01*
X43599910Y35814173D01*
X43612528Y35805741D01*
X43647647Y35779696D01*
X43659398Y35770052D01*
X43691767Y35740714D01*
X43702532Y35729949D01*
X43731870Y35697580D01*
X43741514Y35685829D01*
X43767559Y35650710D01*
X43775991Y35638092D01*
X43798463Y35600600D01*
X43805633Y35587185D01*
X43824316Y35547683D01*
X43830140Y35533625D01*
X43844857Y35492493D01*
X43849271Y35477942D01*
X43859887Y35435558D01*
X43862853Y35420647D01*
X43869267Y35377401D01*
X43870758Y35362274D01*
X43872902Y35318647D01*
X43872902Y35303415D01*
X43870758Y35259788D01*
X43869267Y35244661D01*
X43862853Y35201415D01*
X43859887Y35186504D01*
X43849271Y35144120D01*
X43844857Y35129569D01*
X43830140Y35088437D01*
X43824316Y35074379D01*
X43805633Y35034877D01*
X43798463Y35021462D01*
X43775991Y34983970D01*
X43767559Y34971352D01*
X43741514Y34936233D01*
X43731870Y34924482D01*
X43702532Y34892113D01*
X43691767Y34881348D01*
X43659398Y34852010D01*
X43647647Y34842366D01*
X43612528Y34816321D01*
X43599910Y34807889D01*
X43562418Y34785417D01*
X43549003Y34778247D01*
X43509501Y34759564D01*
X43495443Y34753740D01*
X43454311Y34739023D01*
X43439760Y34734609D01*
X43397376Y34723993D01*
X43382465Y34721027D01*
X43339219Y34714613D01*
X43324092Y34713122D01*
X43280465Y34710978D01*
D02*
G37*
%LPC*%
G36*
X48360443Y32494778D02*
X48345255Y32494778D01*
X48233736Y32500257D01*
X48218634Y32501745D01*
X48108185Y32518128D01*
X48093294Y32521090D01*
X47985003Y32548216D01*
X47970447Y32552631D01*
X47865356Y32590234D01*
X47851300Y32596056D01*
X47750392Y32643781D01*
X47736979Y32650950D01*
X47641227Y32708341D01*
X47628603Y32716777D01*
X47538931Y32783283D01*
X47527171Y32792934D01*
X47444473Y32867887D01*
X47433705Y32878655D01*
X47358752Y32961353D01*
X47349101Y32973113D01*
X47282595Y33062785D01*
X47274159Y33075409D01*
X47216768Y33171161D01*
X47209599Y33184574D01*
X47161874Y33285482D01*
X47156052Y33299538D01*
X47118449Y33404629D01*
X47114034Y33419185D01*
X47086908Y33527476D01*
X47083946Y33542367D01*
X47067563Y33652816D01*
X47066075Y33667918D01*
X47060596Y33779437D01*
X47060596Y33794625D01*
X47066075Y33906144D01*
X47067563Y33921246D01*
X47083946Y34031695D01*
X47086908Y34046586D01*
X47114034Y34154877D01*
X47118449Y34169433D01*
X47156052Y34274524D01*
X47161874Y34288580D01*
X47209599Y34389488D01*
X47216768Y34402901D01*
X47274159Y34498653D01*
X47282595Y34511277D01*
X47349101Y34600949D01*
X47358752Y34612709D01*
X47433705Y34695407D01*
X47444473Y34706175D01*
X47527171Y34781128D01*
X47538931Y34790779D01*
X47628603Y34857285D01*
X47641227Y34865721D01*
X47736979Y34923112D01*
X47750392Y34930281D01*
X47851300Y34978006D01*
X47865356Y34983828D01*
X47970447Y35021431D01*
X47985003Y35025846D01*
X48093294Y35052972D01*
X48108185Y35055934D01*
X48218634Y35072317D01*
X48233736Y35073805D01*
X48345255Y35079284D01*
X48360443Y35079284D01*
X48471962Y35073805D01*
X48487064Y35072317D01*
X48597513Y35055934D01*
X48612404Y35052972D01*
X48720695Y35025846D01*
X48735251Y35021431D01*
X48840342Y34983828D01*
X48854398Y34978006D01*
X48955306Y34930281D01*
X48968719Y34923112D01*
X49064471Y34865721D01*
X49077095Y34857285D01*
X49166767Y34790779D01*
X49178527Y34781128D01*
X49261225Y34706175D01*
X49271993Y34695407D01*
X49346946Y34612709D01*
X49356597Y34600949D01*
X49423103Y34511277D01*
X49431539Y34498653D01*
X49488930Y34402901D01*
X49496099Y34389488D01*
X49543824Y34288580D01*
X49549646Y34274524D01*
X49587249Y34169433D01*
X49591664Y34154877D01*
X49618790Y34046586D01*
X49621752Y34031695D01*
X49638135Y33921246D01*
X49639623Y33906144D01*
X49645102Y33794625D01*
X49645102Y33779437D01*
X49639623Y33667918D01*
X49638135Y33652816D01*
X49621752Y33542367D01*
X49618790Y33527476D01*
X49591664Y33419185D01*
X49587249Y33404629D01*
X49549646Y33299538D01*
X49543824Y33285482D01*
X49496099Y33184574D01*
X49488930Y33171161D01*
X49431539Y33075409D01*
X49423103Y33062785D01*
X49356597Y32973113D01*
X49346946Y32961353D01*
X49271993Y32878655D01*
X49261225Y32867887D01*
X49178527Y32792934D01*
X49166767Y32783283D01*
X49077095Y32716777D01*
X49064471Y32708341D01*
X48968719Y32650950D01*
X48955306Y32643781D01*
X48854398Y32596056D01*
X48840342Y32590234D01*
X48735251Y32552631D01*
X48720695Y32548216D01*
X48612404Y32521090D01*
X48597513Y32518128D01*
X48487064Y32501745D01*
X48471962Y32500257D01*
X48360443Y32494778D01*
D02*
G37*
%LPC*%
G36*
X45185443Y32494778D02*
X45170255Y32494778D01*
X45058736Y32500257D01*
X45043634Y32501745D01*
X44933185Y32518128D01*
X44918294Y32521090D01*
X44810003Y32548216D01*
X44795447Y32552631D01*
X44690356Y32590234D01*
X44676300Y32596056D01*
X44575392Y32643781D01*
X44561979Y32650950D01*
X44466227Y32708341D01*
X44453603Y32716777D01*
X44363931Y32783283D01*
X44352171Y32792934D01*
X44269473Y32867887D01*
X44258705Y32878655D01*
X44183752Y32961353D01*
X44174101Y32973113D01*
X44107595Y33062785D01*
X44099159Y33075409D01*
X44041768Y33171161D01*
X44034599Y33184574D01*
X43986874Y33285482D01*
X43981052Y33299538D01*
X43943449Y33404629D01*
X43939034Y33419185D01*
X43911908Y33527476D01*
X43908946Y33542367D01*
X43892563Y33652816D01*
X43891075Y33667918D01*
X43885596Y33779437D01*
X43885596Y33794625D01*
X43891075Y33906144D01*
X43892563Y33921246D01*
X43908946Y34031695D01*
X43911908Y34046586D01*
X43939034Y34154877D01*
X43943449Y34169433D01*
X43981052Y34274524D01*
X43986874Y34288580D01*
X44034599Y34389488D01*
X44041768Y34402901D01*
X44099159Y34498653D01*
X44107595Y34511277D01*
X44174101Y34600949D01*
X44183752Y34612709D01*
X44258705Y34695407D01*
X44269473Y34706175D01*
X44352171Y34781128D01*
X44363931Y34790779D01*
X44453603Y34857285D01*
X44466227Y34865721D01*
X44561979Y34923112D01*
X44575392Y34930281D01*
X44676300Y34978006D01*
X44690356Y34983828D01*
X44795447Y35021431D01*
X44810003Y35025846D01*
X44918294Y35052972D01*
X44933185Y35055934D01*
X45043634Y35072317D01*
X45058736Y35073805D01*
X45170255Y35079284D01*
X45185443Y35079284D01*
X45296962Y35073805D01*
X45312064Y35072317D01*
X45422513Y35055934D01*
X45437404Y35052972D01*
X45545695Y35025846D01*
X45560251Y35021431D01*
X45665342Y34983828D01*
X45679398Y34978006D01*
X45780306Y34930281D01*
X45793719Y34923112D01*
X45889471Y34865721D01*
X45902095Y34857285D01*
X45991767Y34790779D01*
X46003527Y34781128D01*
X46086225Y34706175D01*
X46096993Y34695407D01*
X46171946Y34612709D01*
X46181597Y34600949D01*
X46248103Y34511277D01*
X46256539Y34498653D01*
X46313930Y34402901D01*
X46321099Y34389488D01*
X46368824Y34288580D01*
X46374646Y34274524D01*
X46412249Y34169433D01*
X46416664Y34154877D01*
X46443790Y34046586D01*
X46446752Y34031695D01*
X46463135Y33921246D01*
X46464623Y33906144D01*
X46470102Y33794625D01*
X46470102Y33779437D01*
X46464623Y33667918D01*
X46463135Y33652816D01*
X46446752Y33542367D01*
X46443790Y33527476D01*
X46416664Y33419185D01*
X46412249Y33404629D01*
X46374646Y33299538D01*
X46368824Y33285482D01*
X46321099Y33184574D01*
X46313930Y33171161D01*
X46256539Y33075409D01*
X46248103Y33062785D01*
X46181597Y32973113D01*
X46171946Y32961353D01*
X46096993Y32878655D01*
X46086225Y32867887D01*
X46003527Y32792934D01*
X45991767Y32783283D01*
X45902095Y32716777D01*
X45889471Y32708341D01*
X45793719Y32650950D01*
X45780306Y32643781D01*
X45679398Y32596056D01*
X45665342Y32590234D01*
X45560251Y32552631D01*
X45545695Y32548216D01*
X45437404Y32521090D01*
X45422513Y32518128D01*
X45312064Y32501745D01*
X45296962Y32500257D01*
X45185443Y32494778D01*
D02*
G37*
G01*
%LPD*%
G75*
D10*
X43190349Y84927031D03*
D10*
X8775000Y50150000D03*
D10*
X16250000Y86550000D03*
D10*
X32500000Y82975000D03*
D10*
X11700000Y48200000D03*
D10*
X30135714Y79564280D03*
D10*
X47450000Y69000000D03*
D10*
X14625000Y50150000D03*
D10*
X1625000Y83950000D03*
D10*
X43190349Y38927031D03*
D10*
X8775000Y4150000D03*
D10*
X16250000Y40550000D03*
D10*
X32500000Y36975000D03*
D10*
X11700000Y2200000D03*
D10*
X30135714Y33564280D03*
D10*
X47450000Y23000000D03*
D10*
X14625000Y4150000D03*
D10*
X1625000Y37950000D03*
M02*
