M48
FMAT,2
METRIC,TZ
T3C0.300
T2C0.991
T1C2.375
%
G90
G05
M71
T3
X43.190Y84.927
X8.775Y50.150
X16.250Y86.550
X32.500Y82.975
X11.700Y48.200
X30.136Y79.564
X47.450Y69.000
X14.625Y50.150
X1.625Y83.950
X43.190Y38.927
X8.775Y4.150
X16.250Y40.550
X32.500Y36.975
X11.700Y2.200
X30.136Y33.564
X47.450Y23.000
X14.625Y4.150
X1.625Y37.950
T2
X43.273Y81.311
X43.273Y83.343
X48.353Y82.327
X43.273Y35.311
X43.273Y37.343
X48.353Y36.327
T1
X48.353Y79.787
X45.178Y79.787
X48.353Y84.867
X45.178Y84.867
X48.353Y33.787
X45.178Y33.787
X48.353Y38.867
X45.178Y38.867
M30
