%FSLAX46Y46*%
%MOMM*%
%ADD10C,0.010000*%
%ADD11C,0.500000*%
G01*
G01*
%LPD*%
D10*
X0Y0D02*
X0Y92000000D01*
D10*
X0Y92000000D02*
X70000000Y92000000D01*
D10*
X70000000Y92000000D02*
X70000000Y0D01*
D10*
X70000000Y0D02*
X0Y0D01*
D11*
X44821428Y103571432D02*
X43821428Y106571432D01*
D11*
X44821428Y104000000D02*
X43964288Y106571432D01*
D11*
X44821428Y103571432D02*
X44821428Y104000000D01*
D11*
X44964288Y104000000D02*
X44107144Y106571432D01*
D11*
X44821428Y103571432D02*
X45821428Y106428568D01*
D11*
X44535712Y106571432D02*
X43535716Y106571432D01*
D11*
X46107144Y106571432D02*
X45250000Y106571432D01*
D11*
X43964288Y106285712D02*
X43678572Y106571432D01*
D11*
X44107144Y106285712D02*
X44250000Y106571432D01*
D11*
X44107144Y106428568D02*
X44392856Y106571432D01*
D11*
X45821428Y106428568D02*
X45535712Y106571432D01*
D11*
X45821428Y106428568D02*
X45964288Y106571432D01*
D11*
X49250000Y105000000D02*
X46821428Y105000000D01*
D11*
X49250000Y104857144D02*
X49250000Y105000000D01*
D11*
X46821428Y104857144D02*
X46821428Y105000000D01*
D11*
X49250000Y104857144D02*
X46821428Y104857144D01*
D11*
X52392856Y106571432D02*
X52250000Y106142856D01*
D11*
X52392856Y105714288D02*
X52392856Y106571432D01*
D11*
X52250000Y106142856D02*
X52392856Y105714288D01*
D11*
X51964288Y106428568D02*
X52250000Y106142856D01*
D11*
X51678572Y106571432D02*
X51964288Y106428568D01*
D11*
X51250000Y106571432D02*
X51678572Y106571432D01*
D11*
X50821428Y106428568D02*
X51250000Y106571432D01*
D11*
X50535716Y106142856D02*
X50821428Y106428568D01*
D11*
X50392856Y105857144D02*
X50535716Y106142856D01*
D11*
X50250000Y105428568D02*
X50392856Y105857144D01*
D11*
X50250000Y104714288D02*
X50250000Y105428568D01*
D11*
X50392856Y104285712D02*
X50250000Y104714288D01*
D11*
X50535716Y104000000D02*
X50392856Y104285712D01*
D11*
X50821428Y103714288D02*
X50535716Y104000000D01*
D11*
X51250000Y103571432D02*
X50821428Y103714288D01*
D11*
X51678572Y103571432D02*
X51250000Y103571432D01*
D11*
X51964288Y103714288D02*
X51678572Y103571432D01*
D11*
X52250000Y104000000D02*
X51964288Y103714288D01*
D11*
X52392856Y104285712D02*
X52250000Y104000000D01*
D11*
X50535716Y105857144D02*
X50678572Y106142856D01*
D11*
X50392856Y105428568D02*
X50535716Y105857144D01*
D11*
X50392856Y104714288D02*
X50392856Y105428568D01*
D11*
X50535716Y104285712D02*
X50392856Y104714288D01*
D11*
X50678572Y104000000D02*
X50535716Y104285712D01*
D11*
X50964288Y106428568D02*
X51250000Y106571432D01*
D11*
X50678572Y106000000D02*
X50964288Y106428568D01*
D11*
X50535716Y105428568D02*
X50678572Y106000000D01*
D11*
X50535716Y104714288D02*
X50535716Y105428568D01*
D11*
X50678572Y104142856D02*
X50535716Y104714288D01*
D11*
X50964288Y103714288D02*
X50678572Y104142856D01*
D11*
X51250000Y103571432D02*
X50964288Y103714288D01*
D11*
X53535716Y104285712D02*
X53535716Y105571432D01*
D11*
X53678572Y103857144D02*
X53535716Y104285712D01*
D11*
X53821428Y103714288D02*
X53678572Y103857144D01*
D11*
X54107144Y103571432D02*
X53821428Y103714288D01*
D11*
X54535716Y103571432D02*
X54107144Y103571432D01*
D11*
X54821428Y103714288D02*
X54535716Y103571432D01*
D11*
X54964284Y103857144D02*
X54821428Y103714288D01*
D11*
X55107144Y104142856D02*
X54964284Y103857144D01*
D11*
X53678572Y104142856D02*
X53678572Y105428568D01*
D11*
X53821428Y103857144D02*
X53678572Y104142856D01*
D11*
X53821428Y105571432D02*
X53107144Y105571432D01*
D11*
X53821428Y104142856D02*
X53821428Y105571432D01*
D11*
X53964288Y103714288D02*
X53821428Y104142856D01*
D11*
X54107144Y103571432D02*
X53964288Y103714288D01*
D11*
X55107144Y103571432D02*
X55107144Y105571432D01*
D11*
X55821428Y103571432D02*
X55107144Y103571432D01*
D11*
X55250000Y103714288D02*
X55250000Y105428568D01*
D11*
X55392856Y105571432D02*
X54678572Y105571432D01*
D11*
X55392856Y103571432D02*
X55392856Y105571432D01*
D11*
X53535716Y105428568D02*
X53250000Y105571432D01*
D11*
X53535716Y105285712D02*
X53392856Y105571432D01*
D11*
X55535716Y103571432D02*
X55392856Y103857144D01*
D11*
X55678572Y103571432D02*
X55392856Y103714288D01*
D11*
X56821428Y104285712D02*
X56821428Y106285712D01*
D11*
X56964284Y103857144D02*
X56821428Y104285712D01*
D11*
X57107144Y103714288D02*
X56964284Y103857144D01*
D11*
X57392856Y103571432D02*
X57107144Y103714288D01*
D11*
X57678572Y103571432D02*
X57392856Y103571432D01*
D11*
X57964284Y103714288D02*
X57678572Y103571432D01*
D11*
X58107144Y104000000D02*
X57964284Y103714288D01*
D11*
X56964284Y104142856D02*
X56964284Y106285712D01*
D11*
X57107144Y103857144D02*
X56964284Y104142856D01*
D11*
X57107144Y106571432D02*
X56821428Y106285712D01*
D11*
X57107144Y104142856D02*
X57107144Y106571432D01*
D11*
X57250000Y103714288D02*
X57107144Y104142856D01*
D11*
X57392856Y103571432D02*
X57250000Y103714288D01*
D11*
X57678572Y105571432D02*
X56392856Y105571432D01*
D11*
X-26178572Y44571428D02*
X-27178572Y47571428D01*
D11*
X-26178572Y45000000D02*
X-27035714Y47571428D01*
D11*
X-26178572Y44571428D02*
X-26178572Y45000000D01*
D11*
X-26035714Y45000000D02*
X-26892856Y47571428D01*
D11*
X-26178572Y44571428D02*
X-25178572Y47428572D01*
D11*
X-26464286Y47571428D02*
X-27464284Y47571428D01*
D11*
X-24892856Y47571428D02*
X-25750000Y47571428D01*
D11*
X-27035714Y47285716D02*
X-27321428Y47571428D01*
D11*
X-26892856Y47285716D02*
X-26750000Y47571428D01*
D11*
X-26892856Y47428572D02*
X-26607144Y47571428D01*
D11*
X-25178572Y47428572D02*
X-25464286Y47571428D01*
D11*
X-25178572Y47428572D02*
X-25035714Y47571428D01*
D11*
X-21750000Y46000000D02*
X-24178572Y46000000D01*
D11*
X-21750000Y45857144D02*
X-21750000Y46000000D01*
D11*
X-24178572Y45857144D02*
X-24178572Y46000000D01*
D11*
X-21750000Y45857144D02*
X-24178572Y45857144D01*
D11*
X-18607144Y47571428D02*
X-18750000Y47142856D01*
D11*
X-18607144Y46714284D02*
X-18607144Y47571428D01*
D11*
X-18750000Y47142856D02*
X-18607144Y46714284D01*
D11*
X-19035714Y47428572D02*
X-18750000Y47142856D01*
D11*
X-19321428Y47571428D02*
X-19035714Y47428572D01*
D11*
X-19750000Y47571428D02*
X-19321428Y47571428D01*
D11*
X-20178572Y47428572D02*
X-19750000Y47571428D01*
D11*
X-20464286Y47142856D02*
X-20178572Y47428572D01*
D11*
X-20607142Y46857144D02*
X-20464286Y47142856D01*
D11*
X-20750000Y46428572D02*
X-20607142Y46857144D01*
D11*
X-20750000Y45714284D02*
X-20750000Y46428572D01*
D11*
X-20607142Y45285716D02*
X-20750000Y45714284D01*
D11*
X-20464286Y45000000D02*
X-20607142Y45285716D01*
D11*
X-20178572Y44714284D02*
X-20464286Y45000000D01*
D11*
X-19750000Y44571428D02*
X-20178572Y44714284D01*
D11*
X-19321428Y44571428D02*
X-19750000Y44571428D01*
D11*
X-19035714Y44714284D02*
X-19321428Y44571428D01*
D11*
X-18750000Y45000000D02*
X-19035714Y44714284D01*
D11*
X-18607144Y45285716D02*
X-18750000Y45000000D01*
D11*
X-20464286Y46857144D02*
X-20321428Y47142856D01*
D11*
X-20607142Y46428572D02*
X-20464286Y46857144D01*
D11*
X-20607142Y45714284D02*
X-20607142Y46428572D01*
D11*
X-20464286Y45285716D02*
X-20607142Y45714284D01*
D11*
X-20321428Y45000000D02*
X-20464286Y45285716D01*
D11*
X-20035714Y47428572D02*
X-19750000Y47571428D01*
D11*
X-20321428Y47000000D02*
X-20035714Y47428572D01*
D11*
X-20464286Y46428572D02*
X-20321428Y47000000D01*
D11*
X-20464286Y45714284D02*
X-20464286Y46428572D01*
D11*
X-20321428Y45142856D02*
X-20464286Y45714284D01*
D11*
X-20035714Y44714284D02*
X-20321428Y45142856D01*
D11*
X-19750000Y44571428D02*
X-20035714Y44714284D01*
D11*
X-17464286Y45285716D02*
X-17464286Y46571428D01*
D11*
X-17321428Y44857144D02*
X-17464286Y45285716D01*
D11*
X-17178572Y44714284D02*
X-17321428Y44857144D01*
D11*
X-16892856Y44571428D02*
X-17178572Y44714284D01*
D11*
X-16464286Y44571428D02*
X-16892856Y44571428D01*
D11*
X-16178572Y44714284D02*
X-16464286Y44571428D01*
D11*
X-16035714Y44857144D02*
X-16178572Y44714284D01*
D11*
X-15892857Y45142856D02*
X-16035714Y44857144D01*
D11*
X-17321428Y45142856D02*
X-17321428Y46428572D01*
D11*
X-17178572Y44857144D02*
X-17321428Y45142856D01*
D11*
X-17178572Y46571428D02*
X-17892856Y46571428D01*
D11*
X-17178572Y45142856D02*
X-17178572Y46571428D01*
D11*
X-17035714Y44714284D02*
X-17178572Y45142856D01*
D11*
X-16892856Y44571428D02*
X-17035714Y44714284D01*
D11*
X-15892857Y44571428D02*
X-15892857Y46571428D01*
D11*
X-15178572Y44571428D02*
X-15892857Y44571428D01*
D11*
X-15750000Y44714284D02*
X-15750000Y46428572D01*
D11*
X-15607143Y46571428D02*
X-16321428Y46571428D01*
D11*
X-15607143Y44571428D02*
X-15607143Y46571428D01*
D11*
X-17464286Y46428572D02*
X-17750000Y46571428D01*
D11*
X-17464286Y46285716D02*
X-17607144Y46571428D01*
D11*
X-15464286Y44571428D02*
X-15607143Y44857144D01*
D11*
X-15321428Y44571428D02*
X-15607143Y44714284D01*
D11*
X-14178571Y45285716D02*
X-14178571Y47285716D01*
D11*
X-14035714Y44857144D02*
X-14178571Y45285716D01*
D11*
X-13892857Y44714284D02*
X-14035714Y44857144D01*
D11*
X-13607143Y44571428D02*
X-13892857Y44714284D01*
D11*
X-13321429Y44571428D02*
X-13607143Y44571428D01*
D11*
X-13035714Y44714284D02*
X-13321429Y44571428D01*
D11*
X-12892857Y45000000D02*
X-13035714Y44714284D01*
D11*
X-14035714Y45142856D02*
X-14035714Y47285716D01*
D11*
X-13892857Y44857144D02*
X-14035714Y45142856D01*
D11*
X-13892857Y47571428D02*
X-14178571Y47285716D01*
D11*
X-13892857Y45142856D02*
X-13892857Y47571428D01*
D11*
X-13750000Y44714284D02*
X-13892857Y45142856D01*
D11*
X-13607143Y44571428D02*
X-13750000Y44714284D01*
D11*
X-13321429Y46571428D02*
X-14607143Y46571428D01*
D11*
X-9000000Y46000000D02*
X58500000Y46000000D01*
D11*
X52000000Y101000000D02*
X52000000Y-2000000D01*
G75*
M02*
