%FSLAX46Y46*%
%MOMM*%
%ADD10C,0.250000*%
G01*
G01*
%LPD*%
D10*
X50271428Y70821432D02*
X49414284Y73821432D01*
D10*
X50128572Y70821432D02*
X49271428Y73821432D01*
D10*
X48985716Y71821432D02*
X48700000Y72964288D01*
D10*
X47700000Y73821432D02*
X49842856Y73821432D01*
D10*
X47842856Y72964288D02*
X47700000Y73821432D01*
D10*
X47842856Y73821432D02*
X47842856Y72964288D01*
D10*
X48842856Y72392856D02*
X49700000Y72392856D01*
D10*
X49700000Y70821432D02*
X50700000Y70821432D01*
D10*
X47271428Y72535712D02*
X47414284Y72250000D01*
D10*
X46985716Y72821432D02*
X47271428Y72535712D01*
D10*
X46557144Y72821432D02*
X46985716Y72821432D01*
D10*
X46414288Y72678568D02*
X46557144Y72821432D01*
D10*
X46414288Y72392856D02*
X46414288Y72678568D01*
D10*
X46557144Y71821432D02*
X46414288Y72392856D01*
D10*
X46842856Y70821432D02*
X46557144Y71821432D01*
D10*
X46557144Y72678568D02*
X46700000Y72821432D01*
D10*
X46557144Y72392856D02*
X46557144Y72678568D01*
D10*
X46700000Y71821432D02*
X46557144Y72392856D01*
D10*
X46985716Y70821432D02*
X46700000Y71821432D01*
D10*
X46271428Y72392856D02*
X46557144Y71821432D01*
D10*
X45985716Y72678568D02*
X46271428Y72392856D01*
D10*
X45700000Y72821432D02*
X45985716Y72678568D01*
D10*
X45414288Y72821432D02*
X45700000Y72821432D01*
D10*
X45271428Y72678568D02*
X45414288Y72821432D01*
D10*
X45271428Y72535712D02*
X45271428Y72678568D01*
D10*
X45414288Y72392856D02*
X45271428Y72535712D01*
D10*
X45557144Y72535712D02*
X45414288Y72392856D01*
D10*
X45414288Y72678568D02*
X45557144Y72535712D01*
D10*
X43985716Y73678568D02*
X43842856Y73821432D01*
D10*
X43842856Y73535712D02*
X43985716Y73678568D01*
D10*
X43700000Y73678568D02*
X43842856Y73535712D01*
D10*
X43842856Y73821432D02*
X43700000Y73678568D01*
D10*
X44842856Y72535712D02*
X44985716Y72250000D01*
D10*
X44557144Y72821432D02*
X44842856Y72535712D01*
D10*
X44128572Y72821432D02*
X44557144Y72821432D01*
D10*
X43985716Y72678568D02*
X44128572Y72821432D01*
D10*
X43985716Y72250000D02*
X43985716Y72678568D01*
D10*
X44271428Y71392856D02*
X43985716Y72250000D01*
D10*
X44271428Y70964288D02*
X44271428Y71392856D01*
D10*
X44128572Y70821432D02*
X44271428Y70964288D01*
D10*
X44128572Y72678568D02*
X44271428Y72821432D01*
D10*
X44128572Y72250000D02*
X44128572Y72678568D01*
D10*
X44414288Y71392856D02*
X44128572Y72250000D01*
D10*
X44414288Y70964288D02*
X44414288Y71392856D01*
D10*
X44271428Y70821432D02*
X44414288Y70964288D01*
D10*
X43842856Y70821432D02*
X44271428Y70821432D01*
D10*
X43557144Y71107144D02*
X43842856Y70821432D01*
D10*
X43414288Y71392856D02*
X43557144Y71107144D01*
D10*
X41271428Y71821432D02*
X40700000Y73821432D01*
D10*
X41414288Y71250000D02*
X41271428Y71821432D01*
D10*
X41414288Y70964288D02*
X41414288Y71250000D01*
D10*
X41271428Y70821432D02*
X41414288Y70964288D01*
D10*
X40842856Y70821432D02*
X41271428Y70821432D01*
D10*
X40557144Y71107144D02*
X40842856Y70821432D01*
D10*
X40414288Y71392856D02*
X40557144Y71107144D01*
D10*
X41128572Y71821432D02*
X40557144Y73821432D01*
D10*
X41271428Y71250000D02*
X41128572Y71821432D01*
D10*
X41271428Y70964288D02*
X41271428Y71250000D01*
D10*
X41128572Y70821432D02*
X41271428Y70964288D01*
D10*
X41271428Y72250000D02*
X41271428Y71821432D01*
D10*
X41414288Y72678568D02*
X41271428Y72250000D01*
D10*
X41700000Y72821432D02*
X41414288Y72678568D01*
D10*
X41985712Y72821432D02*
X41700000Y72821432D01*
D10*
X42414288Y72678568D02*
X41985712Y72821432D01*
D10*
X42700000Y72250000D02*
X42414288Y72678568D01*
D10*
X42842856Y71821432D02*
X42700000Y72250000D01*
D10*
X42842856Y71392856D02*
X42842856Y71821432D01*
D10*
X42700000Y71107144D02*
X42842856Y71392856D01*
D10*
X42557144Y70964288D02*
X42700000Y71107144D01*
D10*
X42271428Y70821432D02*
X42557144Y70964288D01*
D10*
X41985712Y70821432D02*
X42271428Y70821432D01*
D10*
X41700000Y70964288D02*
X41985712Y70821432D01*
D10*
X41414288Y71392856D02*
X41700000Y70964288D01*
D10*
X41271428Y71821432D02*
X41414288Y71392856D01*
D10*
X42271428Y72678568D02*
X41985712Y72821432D01*
D10*
X42557144Y72250000D02*
X42271428Y72678568D01*
D10*
X42700000Y71821432D02*
X42557144Y72250000D01*
D10*
X42700000Y71250000D02*
X42700000Y71821432D01*
D10*
X42557144Y70964288D02*
X42700000Y71250000D01*
D10*
X40557144Y73821432D02*
X41128572Y73821432D01*
D10*
X38414288Y70821432D02*
X37842856Y72821432D01*
D10*
X38557144Y70392856D02*
X38414288Y70821432D01*
D10*
X38842856Y69964288D02*
X38557144Y70392856D01*
D10*
X39271428Y69821432D02*
X38842856Y69964288D01*
D10*
X39700000Y69821432D02*
X39271428Y69821432D01*
D10*
X39985712Y69964288D02*
X39700000Y69821432D01*
D10*
X40128572Y70107144D02*
X39985712Y69964288D01*
D10*
X40128572Y70250000D02*
X40128572Y70107144D01*
D10*
X39985712Y70392856D02*
X40128572Y70250000D01*
D10*
X39842856Y70250000D02*
X39985712Y70392856D01*
D10*
X39985712Y70107144D02*
X39842856Y70250000D01*
D10*
X38557144Y70821432D02*
X37985712Y72821432D01*
D10*
X38700000Y70392856D02*
X38557144Y70821432D01*
D10*
X38985712Y69964288D02*
X38700000Y70392856D01*
D10*
X39271428Y69821432D02*
X38985712Y69964288D01*
D10*
X38271428Y72250000D02*
X38271428Y71821432D01*
D10*
X38414288Y72678568D02*
X38271428Y72250000D01*
D10*
X38700000Y72821432D02*
X38414288Y72678568D01*
D10*
X38985712Y72821432D02*
X38700000Y72821432D01*
D10*
X39414288Y72678568D02*
X38985712Y72821432D01*
D10*
X39700000Y72250000D02*
X39414288Y72678568D01*
D10*
X39842856Y71821432D02*
X39700000Y72250000D01*
D10*
X39842856Y71392856D02*
X39842856Y71821432D01*
D10*
X39700000Y71107144D02*
X39842856Y71392856D01*
D10*
X39557144Y70964288D02*
X39700000Y71107144D01*
D10*
X39271428Y70821432D02*
X39557144Y70964288D01*
D10*
X38985712Y70821432D02*
X39271428Y70821432D01*
D10*
X38700000Y70964288D02*
X38985712Y70821432D01*
D10*
X38414288Y71392856D02*
X38700000Y70964288D01*
D10*
X38271428Y71821432D02*
X38414288Y71392856D01*
D10*
X39271428Y72678568D02*
X38985712Y72821432D01*
D10*
X39557144Y72250000D02*
X39271428Y72678568D01*
D10*
X39700000Y71821432D02*
X39557144Y72250000D01*
D10*
X39700000Y71250000D02*
X39700000Y71821432D01*
D10*
X39557144Y70964288D02*
X39700000Y71250000D01*
D10*
X36271428Y71678568D02*
X36842856Y71535712D01*
D10*
X35842856Y71821432D02*
X36271428Y71678568D01*
D10*
X35414288Y72107144D02*
X35842856Y71821432D01*
D10*
X35271428Y72392856D02*
X35414288Y72107144D01*
D10*
X35414288Y72678568D02*
X35271428Y72392856D01*
D10*
X35700000Y72821432D02*
X35414288Y72678568D01*
D10*
X36128572Y72821432D02*
X35700000Y72821432D01*
D10*
X36557144Y72678568D02*
X36128572Y72821432D01*
D10*
X36842856Y72250000D02*
X36557144Y72678568D01*
D10*
X36985712Y71821432D02*
X36842856Y72250000D01*
D10*
X36985712Y71392856D02*
X36985712Y71821432D01*
D10*
X36842856Y71107144D02*
X36985712Y71392856D01*
D10*
X36700000Y70964288D02*
X36842856Y71107144D01*
D10*
X36414288Y70821432D02*
X36700000Y70964288D01*
D10*
X36128572Y70821432D02*
X36414288Y70821432D01*
D10*
X35700000Y70964288D02*
X36128572Y70821432D01*
D10*
X35414288Y71250000D02*
X35700000Y70964288D01*
D10*
X36414288Y72678568D02*
X36128572Y72821432D01*
D10*
X36700000Y72250000D02*
X36414288Y72678568D01*
D10*
X36842856Y71821432D02*
X36700000Y72250000D01*
D10*
X36842856Y71250000D02*
X36842856Y71821432D01*
D10*
X36700000Y70964288D02*
X36842856Y71250000D01*
D10*
X33128572Y71964288D02*
X32557144Y73821432D01*
D10*
X33128572Y71535712D02*
X33128572Y71964288D01*
D10*
X32985714Y71107144D02*
X33128572Y71535712D01*
D10*
X32842858Y70964288D02*
X32985714Y71107144D01*
D10*
X32985714Y71964288D02*
X32414286Y73821432D01*
D10*
X32842858Y72392856D02*
X32985714Y71964288D01*
D10*
X32557144Y72678568D02*
X32842858Y72392856D01*
D10*
X32271428Y72821432D02*
X32557144Y72678568D01*
D10*
X31985714Y72821432D02*
X32271428Y72821432D01*
D10*
X31700000Y72678568D02*
X31985714Y72821432D01*
D10*
X31557144Y72535712D02*
X31700000Y72678568D01*
D10*
X31414286Y72250000D02*
X31557144Y72535712D01*
D10*
X31414286Y71821432D02*
X31414286Y72250000D01*
D10*
X31557144Y71392856D02*
X31414286Y71821432D01*
D10*
X31842858Y70964288D02*
X31557144Y71392856D01*
D10*
X32271428Y70821432D02*
X31842858Y70964288D01*
D10*
X32557144Y70821432D02*
X32271428Y70821432D01*
D10*
X32842858Y70964288D02*
X32557144Y70821432D01*
D10*
X32985714Y71392856D02*
X32842858Y70964288D01*
D10*
X32985714Y71964288D02*
X32985714Y71392856D01*
D10*
X31557144Y72392856D02*
X31700000Y72678568D01*
D10*
X31557144Y71821432D02*
X31557144Y72392856D01*
D10*
X31700000Y71392856D02*
X31557144Y71821432D01*
D10*
X31985714Y70964288D02*
X31700000Y71392856D01*
D10*
X32271428Y70821432D02*
X31985714Y70964288D01*
D10*
X32414286Y73821432D02*
X32985714Y73821432D01*
D10*
X30700000Y72535712D02*
X30842858Y72250000D01*
D10*
X30414286Y72821432D02*
X30700000Y72535712D01*
D10*
X29985714Y72821432D02*
X30414286Y72821432D01*
D10*
X29842858Y72678568D02*
X29985714Y72821432D01*
D10*
X29842858Y72250000D02*
X29842858Y72678568D01*
D10*
X30128572Y71392856D02*
X29842858Y72250000D01*
D10*
X30128572Y71107144D02*
X30128572Y71392856D01*
D10*
X29842858Y70821432D02*
X30128572Y71107144D01*
D10*
X29985714Y72678568D02*
X30128572Y72821432D01*
D10*
X29985714Y72250000D02*
X29985714Y72678568D01*
D10*
X30271428Y71392856D02*
X29985714Y72250000D01*
D10*
X30271428Y71107144D02*
X30271428Y71392856D01*
D10*
X30128572Y70964288D02*
X30271428Y71107144D01*
D10*
X29842858Y70821432D02*
X30128572Y70964288D01*
D10*
X29557144Y70821432D02*
X29842858Y70821432D01*
D10*
X29271428Y70964288D02*
X29557144Y70821432D01*
D10*
X28985714Y71250000D02*
X29271428Y70964288D01*
D10*
X28700000Y71821432D02*
X28985714Y71250000D01*
D10*
X28700000Y71821432D02*
X28414286Y72821432D01*
D10*
X28842858Y71250000D02*
X28700000Y71821432D01*
D10*
X28842858Y70964288D02*
X28842858Y71250000D01*
D10*
X28700000Y70821432D02*
X28842858Y70964288D01*
D10*
X28271428Y70821432D02*
X28700000Y70821432D01*
D10*
X27985714Y71107144D02*
X28271428Y70821432D01*
D10*
X27842858Y71392856D02*
X27985714Y71107144D01*
D10*
X28557144Y71821432D02*
X28271428Y72821432D01*
D10*
X28700000Y71250000D02*
X28557144Y71821432D01*
D10*
X28700000Y70964288D02*
X28700000Y71250000D01*
D10*
X28557144Y70821432D02*
X28700000Y70964288D01*
D10*
X25414286Y72535712D02*
X25271428Y72821432D01*
D10*
X25700000Y72250000D02*
X25414286Y72535712D01*
D10*
X26842858Y71392856D02*
X25700000Y72250000D01*
D10*
X27128572Y71107144D02*
X26842858Y71392856D01*
D10*
X27271428Y70821432D02*
X27128572Y71107144D01*
D10*
X26985714Y72535712D02*
X27128572Y72250000D01*
D10*
X26700000Y72821432D02*
X26985714Y72535712D01*
D10*
X26271428Y72821432D02*
X26700000Y72821432D01*
D10*
X25700000Y72535712D02*
X26271428Y72821432D01*
D10*
X26700000Y72678568D02*
X26985714Y72535712D01*
D10*
X26271428Y72678568D02*
X26700000Y72678568D01*
D10*
X25700000Y72535712D02*
X26271428Y72678568D01*
D10*
X25414286Y72535712D02*
X25700000Y72535712D01*
D10*
X26842858Y71107144D02*
X27128572Y71107144D01*
D10*
X26271428Y70964288D02*
X26842858Y71107144D01*
D10*
X25842858Y70964288D02*
X26271428Y70964288D01*
D10*
X25557144Y71107144D02*
X25842858Y70964288D01*
D10*
X26271428Y70821432D02*
X26842858Y71107144D01*
D10*
X25842858Y70821432D02*
X26271428Y70821432D01*
D10*
X25557144Y71107144D02*
X25842858Y70821432D01*
D10*
X25414286Y71392856D02*
X25557144Y71107144D01*
D10*
X22557144Y72535712D02*
X22414286Y72821432D01*
D10*
X22842858Y72250000D02*
X22557144Y72535712D01*
D10*
X23985714Y71392856D02*
X22842858Y72250000D01*
D10*
X24271428Y71107144D02*
X23985714Y71392856D01*
D10*
X24414286Y70821432D02*
X24271428Y71107144D01*
D10*
X24128572Y72535712D02*
X24271428Y72250000D01*
D10*
X23842858Y72821432D02*
X24128572Y72535712D01*
D10*
X23414286Y72821432D02*
X23842858Y72821432D01*
D10*
X22842858Y72535712D02*
X23414286Y72821432D01*
D10*
X23842858Y72678568D02*
X24128572Y72535712D01*
D10*
X23414286Y72678568D02*
X23842858Y72678568D01*
D10*
X22842858Y72535712D02*
X23414286Y72678568D01*
D10*
X22557144Y72535712D02*
X22842858Y72535712D01*
D10*
X23985714Y71107144D02*
X24271428Y71107144D01*
D10*
X23414286Y70964288D02*
X23985714Y71107144D01*
D10*
X22985714Y70964288D02*
X23414286Y70964288D01*
D10*
X22700000Y71107144D02*
X22985714Y70964288D01*
D10*
X23414286Y70821432D02*
X23985714Y71107144D01*
D10*
X22985714Y70821432D02*
X23414286Y70821432D01*
D10*
X22700000Y71107144D02*
X22985714Y70821432D01*
D10*
X22557144Y71392856D02*
X22700000Y71107144D01*
D10*
X20842858Y71678568D02*
X21414286Y71535712D01*
D10*
X20414286Y71821432D02*
X20842858Y71678568D01*
D10*
X19985714Y72107144D02*
X20414286Y71821432D01*
D10*
X19842858Y72392856D02*
X19985714Y72107144D01*
D10*
X19985714Y72678568D02*
X19842858Y72392856D01*
D10*
X20271430Y72821432D02*
X19985714Y72678568D01*
D10*
X20700000Y72821432D02*
X20271430Y72821432D01*
D10*
X21128572Y72678568D02*
X20700000Y72821432D01*
D10*
X21414286Y72250000D02*
X21128572Y72678568D01*
D10*
X21557144Y71821432D02*
X21414286Y72250000D01*
D10*
X21557144Y71392856D02*
X21557144Y71821432D01*
D10*
X21414286Y71107144D02*
X21557144Y71392856D01*
D10*
X21271430Y70964288D02*
X21414286Y71107144D01*
D10*
X20985714Y70821432D02*
X21271430Y70964288D01*
D10*
X20700000Y70821432D02*
X20985714Y70821432D01*
D10*
X20271430Y70964288D02*
X20700000Y70821432D01*
D10*
X19985714Y71250000D02*
X20271430Y70964288D01*
D10*
X20985714Y72678568D02*
X20700000Y72821432D01*
D10*
X21271430Y72250000D02*
X20985714Y72678568D01*
D10*
X21414286Y71821432D02*
X21271430Y72250000D01*
D10*
X21414286Y71250000D02*
X21414286Y71821432D01*
D10*
X21271430Y70964288D02*
X21414286Y71250000D01*
D10*
X19128572Y72535712D02*
X19271430Y72250000D01*
D10*
X18842858Y72821432D02*
X19128572Y72535712D01*
D10*
X18414286Y72821432D02*
X18842858Y72821432D01*
D10*
X18271430Y72678568D02*
X18414286Y72821432D01*
D10*
X18271430Y72392856D02*
X18271430Y72678568D01*
D10*
X18414286Y71821432D02*
X18271430Y72392856D01*
D10*
X18700000Y70821432D02*
X18414286Y71821432D01*
D10*
X18414286Y72678568D02*
X18557144Y72821432D01*
D10*
X18414286Y72392856D02*
X18414286Y72678568D01*
D10*
X18557144Y71821432D02*
X18414286Y72392856D01*
D10*
X18842858Y70821432D02*
X18557144Y71821432D01*
D10*
X18128572Y72392856D02*
X18414286Y71821432D01*
D10*
X17842858Y72678568D02*
X18128572Y72392856D01*
D10*
X17557144Y72821432D02*
X17842858Y72678568D01*
D10*
X17271430Y72821432D02*
X17557144Y72821432D01*
D10*
X17128572Y72678568D02*
X17271430Y72821432D01*
D10*
X17128572Y72535712D02*
X17128572Y72678568D01*
D10*
X17271430Y72392856D02*
X17128572Y72535712D01*
D10*
X17414286Y72535712D02*
X17271430Y72392856D01*
D10*
X17271430Y72678568D02*
X17414286Y72535712D01*
D10*
X50271428Y66521428D02*
X49414284Y69521432D01*
D10*
X50128572Y66521428D02*
X49271428Y69521432D01*
D10*
X48842856Y69521432D02*
X49842856Y69521432D01*
D10*
X48557144Y66521428D02*
X50700000Y66521428D01*
D10*
X48271428Y67378568D02*
X48557144Y66521428D01*
D10*
X48700000Y66521428D02*
X48271428Y67378568D01*
D10*
X47557144Y68235712D02*
X47700000Y67950000D01*
D10*
X47271428Y68521432D02*
X47557144Y68235712D01*
D10*
X46842856Y68521432D02*
X47271428Y68521432D01*
D10*
X46700000Y68378568D02*
X46842856Y68521432D01*
D10*
X46700000Y67950000D02*
X46700000Y68378568D01*
D10*
X46985716Y67092856D02*
X46700000Y67950000D01*
D10*
X46985716Y66807144D02*
X46985716Y67092856D01*
D10*
X46700000Y66521428D02*
X46985716Y66807144D01*
D10*
X46842856Y68378568D02*
X46985716Y68521432D01*
D10*
X46842856Y67950000D02*
X46842856Y68378568D01*
D10*
X47128572Y67092856D02*
X46842856Y67950000D01*
D10*
X47128572Y66807144D02*
X47128572Y67092856D01*
D10*
X46985716Y66664284D02*
X47128572Y66807144D01*
D10*
X46700000Y66521428D02*
X46985716Y66664284D01*
D10*
X46414288Y66521428D02*
X46700000Y66521428D01*
D10*
X46128572Y66664284D02*
X46414288Y66521428D01*
D10*
X45842856Y66950000D02*
X46128572Y66664284D01*
D10*
X45557144Y67521432D02*
X45842856Y66950000D01*
D10*
X45557144Y67521432D02*
X45271428Y68521432D01*
D10*
X45700000Y66950000D02*
X45557144Y67521432D01*
D10*
X45700000Y66664284D02*
X45700000Y66950000D01*
D10*
X45557144Y66521428D02*
X45700000Y66664284D01*
D10*
X45128572Y66521428D02*
X45557144Y66521428D01*
D10*
X44842856Y66807144D02*
X45128572Y66521428D01*
D10*
X44700000Y67092856D02*
X44842856Y66807144D01*
D10*
X45414288Y67521432D02*
X45128572Y68521432D01*
D10*
X45557144Y66950000D02*
X45414288Y67521432D01*
D10*
X45557144Y66664284D02*
X45557144Y66950000D01*
D10*
X45414288Y66521428D02*
X45557144Y66664284D01*
D10*
X44271428Y66521428D02*
X43414288Y69521432D01*
D10*
X44128572Y66521428D02*
X43271428Y69521432D01*
D10*
X42414288Y68235712D02*
X42271428Y68378568D01*
D10*
X42271428Y68092856D02*
X42414288Y68235712D01*
D10*
X42128572Y68235712D02*
X42271428Y68092856D01*
D10*
X42128572Y68378568D02*
X42128572Y68235712D01*
D10*
X42271428Y68521432D02*
X42128572Y68378568D01*
D10*
X42414288Y68521432D02*
X42271428Y68521432D01*
D10*
X42700000Y68378568D02*
X42414288Y68521432D01*
D10*
X43271428Y67807144D02*
X42700000Y68378568D01*
D10*
X43557144Y67664288D02*
X43271428Y67807144D01*
D10*
X43842856Y67664288D02*
X43557144Y67664288D01*
D10*
X43271428Y67521432D02*
X43557144Y67664288D01*
D10*
X42985716Y66664284D02*
X43271428Y67521432D01*
D10*
X42842856Y66521428D02*
X42985716Y66664284D01*
D10*
X43414288Y67521432D02*
X43557144Y67664288D01*
D10*
X43128572Y66664284D02*
X43414288Y67521432D01*
D10*
X42985716Y66521428D02*
X43128572Y66664284D01*
D10*
X42700000Y66521428D02*
X42985716Y66521428D01*
D10*
X42414288Y66664284D02*
X42700000Y66521428D01*
D10*
X42128572Y67092856D02*
X42414288Y66664284D01*
D10*
X43271428Y69521432D02*
X43842856Y69521432D01*
D10*
X39700000Y67521432D02*
X39414288Y68521432D01*
D10*
X39842856Y66950000D02*
X39700000Y67521432D01*
D10*
X39842856Y66664284D02*
X39842856Y66950000D01*
D10*
X39700000Y66521428D02*
X39842856Y66664284D01*
D10*
X39271428Y66521428D02*
X39700000Y66521428D01*
D10*
X38985712Y66807144D02*
X39271428Y66521428D01*
D10*
X38842856Y67092856D02*
X38985712Y66807144D01*
D10*
X39557144Y67521432D02*
X39271428Y68521432D01*
D10*
X39700000Y66950000D02*
X39557144Y67521432D01*
D10*
X39700000Y66664284D02*
X39700000Y66950000D01*
D10*
X39557144Y66521428D02*
X39700000Y66664284D01*
D10*
X39700000Y67950000D02*
X39700000Y67521432D01*
D10*
X39842856Y68378568D02*
X39700000Y67950000D01*
D10*
X40128572Y68521432D02*
X39842856Y68378568D01*
D10*
X40414288Y68521432D02*
X40128572Y68521432D01*
D10*
X40842856Y68378568D02*
X40414288Y68521432D01*
D10*
X41128572Y67950000D02*
X40842856Y68378568D01*
D10*
X41271428Y67521432D02*
X41128572Y67950000D01*
D10*
X41271428Y67092856D02*
X41271428Y67521432D01*
D10*
X41128572Y66807144D02*
X41271428Y67092856D01*
D10*
X40985712Y66664284D02*
X41128572Y66807144D01*
D10*
X40700000Y66521428D02*
X40985712Y66664284D01*
D10*
X40414288Y66521428D02*
X40700000Y66521428D01*
D10*
X40128572Y66664284D02*
X40414288Y66521428D01*
D10*
X39842856Y67092856D02*
X40128572Y66664284D01*
D10*
X39700000Y67521432D02*
X39842856Y67092856D01*
D10*
X40700000Y68378568D02*
X40414288Y68521432D01*
D10*
X40985712Y67950000D02*
X40700000Y68378568D01*
D10*
X41128572Y67521432D02*
X40985712Y67950000D01*
D10*
X41128572Y66950000D02*
X41128572Y67521432D01*
D10*
X40985712Y66664284D02*
X41128572Y66950000D01*
D10*
X36700000Y68092856D02*
X36700000Y68235712D01*
D10*
X36557144Y68092856D02*
X36700000Y68092856D01*
D10*
X36557144Y68235712D02*
X36557144Y68092856D01*
D10*
X36700000Y68378568D02*
X36557144Y68235712D01*
D10*
X37128572Y68521432D02*
X36700000Y68378568D01*
D10*
X37557144Y68521432D02*
X37128572Y68521432D01*
D10*
X37985712Y68378568D02*
X37557144Y68521432D01*
D10*
X38128572Y68235712D02*
X37985712Y68378568D01*
D10*
X38128572Y67950000D02*
X38128572Y68235712D01*
D10*
X37985712Y67807144D02*
X38128572Y67950000D01*
D10*
X36985712Y67235712D02*
X37985712Y67807144D01*
D10*
X36842856Y67092856D02*
X36985712Y67235712D01*
D10*
X37985712Y67950000D02*
X38128572Y68092856D01*
D10*
X36985712Y67378568D02*
X37985712Y67950000D01*
D10*
X36842856Y67235712D02*
X36985712Y67378568D01*
D10*
X36842856Y66807144D02*
X36842856Y67235712D01*
D10*
X36985712Y66664284D02*
X36842856Y66807144D01*
D10*
X37414288Y66521428D02*
X36985712Y66664284D01*
D10*
X37842856Y66521428D02*
X37414288Y66521428D01*
D10*
X38271428Y66664284D02*
X37842856Y66521428D01*
D10*
X38414288Y66807144D02*
X38271428Y66664284D01*
D10*
X38414288Y66950000D02*
X38414288Y66807144D01*
D10*
X38271428Y66950000D02*
X38414288Y66950000D01*
D10*
X38271428Y66807144D02*
X38271428Y66950000D01*
D10*
X34700000Y66521428D02*
X33842856Y69521432D01*
D10*
X34557144Y66521428D02*
X33700000Y69521432D01*
D10*
X34271428Y67664288D02*
X31842858Y69521432D01*
D10*
X32700000Y66521428D02*
X33271428Y68235712D01*
D10*
X32842858Y66521428D02*
X33414286Y68235712D01*
D10*
X33271428Y69521432D02*
X34271428Y69521432D01*
D10*
X31557144Y69521432D02*
X32414286Y69521432D01*
D10*
X34128572Y66521428D02*
X35128572Y66521428D01*
D10*
X32414286Y66521428D02*
X33271428Y66521428D01*
D10*
X31271428Y66664284D02*
X31128572Y66807144D01*
D10*
X31128572Y66521428D02*
X31271428Y66664284D01*
D10*
X30985714Y66664284D02*
X31128572Y66521428D01*
D10*
X31128572Y66807144D02*
X30985714Y66664284D01*
D10*
X28128572Y68807144D02*
X28271428Y68950000D01*
D10*
X28271428Y68664288D02*
X28128572Y68807144D01*
D10*
X28414286Y68807144D02*
X28271428Y68664288D01*
D10*
X28414286Y68950000D02*
X28414286Y68807144D01*
D10*
X28271428Y69235712D02*
X28414286Y68950000D01*
D10*
X28128572Y69378568D02*
X28271428Y69235712D01*
D10*
X27700000Y69521432D02*
X28128572Y69378568D01*
D10*
X27271428Y69521432D02*
X27700000Y69521432D01*
D10*
X26842858Y69378568D02*
X27271428Y69521432D01*
D10*
X26700000Y69092856D02*
X26842858Y69378568D01*
D10*
X26700000Y68807144D02*
X26700000Y69092856D01*
D10*
X26842858Y68521432D02*
X26700000Y68807144D01*
D10*
X27128572Y68235712D02*
X26842858Y68521432D01*
D10*
X27557144Y67950000D02*
X27128572Y68235712D01*
D10*
X28128572Y67664288D02*
X27557144Y67950000D01*
D10*
X28557144Y67378568D02*
X28128572Y67664288D01*
D10*
X28842858Y67092856D02*
X28557144Y67378568D01*
D10*
X29128572Y66521428D02*
X28842858Y67092856D01*
D10*
X26985714Y69378568D02*
X27271428Y69521432D01*
D10*
X26842858Y69092856D02*
X26985714Y69378568D01*
D10*
X26842858Y68807144D02*
X26842858Y69092856D01*
D10*
X26985714Y68521432D02*
X26842858Y68807144D01*
D10*
X27271428Y68235712D02*
X26985714Y68521432D01*
D10*
X28128572Y67664288D02*
X27271428Y68235712D01*
D10*
X28842858Y66950000D02*
X28985714Y66807144D01*
D10*
X28557144Y66950000D02*
X28842858Y66950000D01*
D10*
X27842858Y66664284D02*
X28557144Y66950000D01*
D10*
X27414286Y66664284D02*
X27842858Y66664284D01*
D10*
X27128572Y66807144D02*
X27414286Y66664284D01*
D10*
X26985714Y67092856D02*
X27128572Y66807144D01*
D10*
X27842858Y66521428D02*
X28557144Y66950000D01*
D10*
X27414286Y66521428D02*
X27842858Y66521428D01*
D10*
X27128572Y66664284D02*
X27414286Y66521428D01*
D10*
X26985714Y67092856D02*
X27128572Y66664284D01*
D10*
X24985714Y69378568D02*
X24557144Y69521432D01*
D10*
X25271428Y69092856D02*
X24985714Y69378568D01*
D10*
X25557144Y68664288D02*
X25271428Y69092856D01*
D10*
X25700000Y68235712D02*
X25557144Y68664288D01*
D10*
X25842858Y67664288D02*
X25700000Y68235712D01*
D10*
X25842858Y67235712D02*
X25842858Y67664288D01*
D10*
X25700000Y66807144D02*
X25842858Y67235712D01*
D10*
X25557144Y66664284D02*
X25700000Y66807144D01*
D10*
X25271428Y66521428D02*
X25557144Y66664284D01*
D10*
X24985714Y66521428D02*
X25271428Y66521428D01*
D10*
X24557144Y66664284D02*
X24985714Y66521428D01*
D10*
X24271428Y66950000D02*
X24557144Y66664284D01*
D10*
X23985714Y67378568D02*
X24271428Y66950000D01*
D10*
X23842858Y67807144D02*
X23985714Y67378568D01*
D10*
X23700000Y68378568D02*
X23842858Y67807144D01*
D10*
X23700000Y68807144D02*
X23700000Y68378568D01*
D10*
X23842858Y69235712D02*
X23700000Y68807144D01*
D10*
X23985714Y69378568D02*
X23842858Y69235712D01*
D10*
X24271428Y69521432D02*
X23985714Y69378568D01*
D10*
X24557144Y69521432D02*
X24271428Y69521432D01*
D10*
X24842858Y69378568D02*
X24557144Y69521432D01*
D10*
X25128572Y69092856D02*
X24842858Y69378568D01*
D10*
X25414286Y68664288D02*
X25128572Y69092856D01*
D10*
X25557144Y68235712D02*
X25414286Y68664288D01*
D10*
X25700000Y67664288D02*
X25557144Y68235712D01*
D10*
X25700000Y67235712D02*
X25700000Y67664288D01*
D10*
X25557144Y66807144D02*
X25700000Y67235712D01*
D10*
X25271428Y66521428D02*
X25557144Y66807144D01*
D10*
X24700000Y66664284D02*
X24985714Y66521428D01*
D10*
X24414286Y66950000D02*
X24700000Y66664284D01*
D10*
X24128572Y67378568D02*
X24414286Y66950000D01*
D10*
X23985714Y67807144D02*
X24128572Y67378568D01*
D10*
X23842858Y68378568D02*
X23985714Y67807144D01*
D10*
X23842858Y68807144D02*
X23842858Y68378568D01*
D10*
X23985714Y69235712D02*
X23842858Y68807144D01*
D10*
X24271428Y69521432D02*
X23985714Y69235712D01*
D10*
X22128572Y68807144D02*
X22271430Y68950000D01*
D10*
X22271430Y68664288D02*
X22128572Y68807144D01*
D10*
X22414286Y68807144D02*
X22271430Y68664288D01*
D10*
X22414286Y68950000D02*
X22414286Y68807144D01*
D10*
X22271430Y69235712D02*
X22414286Y68950000D01*
D10*
X22128572Y69378568D02*
X22271430Y69235712D01*
D10*
X21700000Y69521432D02*
X22128572Y69378568D01*
D10*
X21271430Y69521432D02*
X21700000Y69521432D01*
D10*
X20842858Y69378568D02*
X21271430Y69521432D01*
D10*
X20700000Y69092856D02*
X20842858Y69378568D01*
D10*
X20700000Y68807144D02*
X20700000Y69092856D01*
D10*
X20842858Y68521432D02*
X20700000Y68807144D01*
D10*
X21128572Y68235712D02*
X20842858Y68521432D01*
D10*
X21557144Y67950000D02*
X21128572Y68235712D01*
D10*
X22128572Y67664288D02*
X21557144Y67950000D01*
D10*
X22557144Y67378568D02*
X22128572Y67664288D01*
D10*
X22842858Y67092856D02*
X22557144Y67378568D01*
D10*
X23128572Y66521428D02*
X22842858Y67092856D01*
D10*
X20985714Y69378568D02*
X21271430Y69521432D01*
D10*
X20842858Y69092856D02*
X20985714Y69378568D01*
D10*
X20842858Y68807144D02*
X20842858Y69092856D01*
D10*
X20985714Y68521432D02*
X20842858Y68807144D01*
D10*
X21271430Y68235712D02*
X20985714Y68521432D01*
D10*
X22128572Y67664288D02*
X21271430Y68235712D01*
D10*
X22842858Y66950000D02*
X22985714Y66807144D01*
D10*
X22557144Y66950000D02*
X22842858Y66950000D01*
D10*
X21842858Y66664284D02*
X22557144Y66950000D01*
D10*
X21414286Y66664284D02*
X21842858Y66664284D01*
D10*
X21128572Y66807144D02*
X21414286Y66664284D01*
D10*
X20985714Y67092856D02*
X21128572Y66807144D01*
D10*
X21842858Y66521428D02*
X22557144Y66950000D01*
D10*
X21414286Y66521428D02*
X21842858Y66521428D01*
D10*
X21128572Y66664284D02*
X21414286Y66521428D01*
D10*
X20985714Y67092856D02*
X21128572Y66664284D01*
D10*
X19128572Y68807144D02*
X19271430Y68950000D01*
D10*
X19271430Y68664288D02*
X19128572Y68807144D01*
D10*
X19414286Y68807144D02*
X19271430Y68664288D01*
D10*
X19414286Y68950000D02*
X19414286Y68807144D01*
D10*
X19271430Y69235712D02*
X19414286Y68950000D01*
D10*
X19128572Y69378568D02*
X19271430Y69235712D01*
D10*
X18700000Y69521432D02*
X19128572Y69378568D01*
D10*
X18271430Y69521432D02*
X18700000Y69521432D01*
D10*
X17842858Y69378568D02*
X18271430Y69521432D01*
D10*
X17700000Y69092856D02*
X17842858Y69378568D01*
D10*
X17700000Y68807144D02*
X17700000Y69092856D01*
D10*
X17842858Y68521432D02*
X17700000Y68807144D01*
D10*
X18128572Y68235712D02*
X17842858Y68521432D01*
D10*
X18557144Y67950000D02*
X18128572Y68235712D01*
D10*
X19128572Y67664288D02*
X18557144Y67950000D01*
D10*
X19557144Y67378568D02*
X19128572Y67664288D01*
D10*
X19842858Y67092856D02*
X19557144Y67378568D01*
D10*
X20128572Y66521428D02*
X19842858Y67092856D01*
D10*
X17985714Y69378568D02*
X18271430Y69521432D01*
D10*
X17842858Y69092856D02*
X17985714Y69378568D01*
D10*
X17842858Y68807144D02*
X17842858Y69092856D01*
D10*
X17985714Y68521432D02*
X17842858Y68807144D01*
D10*
X18271430Y68235712D02*
X17985714Y68521432D01*
D10*
X19128572Y67664288D02*
X18271430Y68235712D01*
D10*
X19842858Y66950000D02*
X19985714Y66807144D01*
D10*
X19557144Y66950000D02*
X19842858Y66950000D01*
D10*
X18842858Y66664284D02*
X19557144Y66950000D01*
D10*
X18414286Y66664284D02*
X18842858Y66664284D01*
D10*
X18128572Y66807144D02*
X18414286Y66664284D01*
D10*
X17985714Y67092856D02*
X18128572Y66807144D01*
D10*
X18842858Y66521428D02*
X19557144Y66950000D01*
D10*
X18414286Y66521428D02*
X18842858Y66521428D01*
D10*
X18128572Y66664284D02*
X18414286Y66521428D01*
D10*
X17985714Y67092856D02*
X18128572Y66664284D01*
D10*
X50414284Y63935716D02*
X50557144Y63650000D01*
D10*
X50128572Y64221428D02*
X50414284Y63935716D01*
D10*
X49700000Y64221428D02*
X50128572Y64221428D01*
D10*
X49557144Y64078572D02*
X49700000Y64221428D01*
D10*
X49557144Y63792856D02*
X49557144Y64078572D01*
D10*
X49700000Y63221428D02*
X49557144Y63792856D01*
D10*
X49985716Y62221428D02*
X49700000Y63221428D01*
D10*
X49700000Y64078572D02*
X49842856Y64221428D01*
D10*
X49700000Y63792856D02*
X49700000Y64078572D01*
D10*
X49842856Y63221428D02*
X49700000Y63792856D01*
D10*
X50128572Y62221428D02*
X49842856Y63221428D01*
D10*
X49414284Y63792856D02*
X49700000Y63221428D01*
D10*
X49128572Y64078572D02*
X49414284Y63792856D01*
D10*
X48842856Y64221428D02*
X49128572Y64078572D01*
D10*
X48557144Y64221428D02*
X48842856Y64221428D01*
D10*
X48414284Y64078572D02*
X48557144Y64221428D01*
D10*
X48414284Y63935716D02*
X48414284Y64078572D01*
D10*
X48557144Y63792856D02*
X48414284Y63935716D01*
D10*
X48700000Y63935716D02*
X48557144Y63792856D01*
D10*
X48557144Y64078572D02*
X48700000Y63935716D01*
D10*
X47128572Y63078572D02*
X47700000Y62935716D01*
D10*
X46700000Y63221428D02*
X47128572Y63078572D01*
D10*
X46271428Y63507144D02*
X46700000Y63221428D01*
D10*
X46128572Y63792856D02*
X46271428Y63507144D01*
D10*
X46271428Y64078572D02*
X46128572Y63792856D01*
D10*
X46557144Y64221428D02*
X46271428Y64078572D01*
D10*
X46985716Y64221428D02*
X46557144Y64221428D01*
D10*
X47414284Y64078572D02*
X46985716Y64221428D01*
D10*
X47700000Y63650000D02*
X47414284Y64078572D01*
D10*
X47842856Y63221428D02*
X47700000Y63650000D01*
D10*
X47842856Y62792856D02*
X47842856Y63221428D01*
D10*
X47700000Y62507144D02*
X47842856Y62792856D01*
D10*
X47557144Y62364284D02*
X47700000Y62507144D01*
D10*
X47271428Y62221428D02*
X47557144Y62364284D01*
D10*
X46985716Y62221428D02*
X47271428Y62221428D01*
D10*
X46557144Y62364284D02*
X46985716Y62221428D01*
D10*
X46271428Y62650000D02*
X46557144Y62364284D01*
D10*
X47271428Y64078572D02*
X46985716Y64221428D01*
D10*
X47557144Y63650000D02*
X47271428Y64078572D01*
D10*
X47700000Y63221428D02*
X47557144Y63650000D01*
D10*
X47700000Y62650000D02*
X47700000Y63221428D01*
D10*
X47557144Y62364284D02*
X47700000Y62650000D01*
D10*
X45414288Y63935716D02*
X45557144Y63650000D01*
D10*
X45128572Y64221428D02*
X45414288Y63935716D01*
D10*
X44700000Y64221428D02*
X45128572Y64221428D01*
D10*
X44557144Y64078572D02*
X44700000Y64221428D01*
D10*
X44557144Y63650000D02*
X44557144Y64078572D01*
D10*
X44842856Y62792856D02*
X44557144Y63650000D01*
D10*
X44842856Y62507144D02*
X44842856Y62792856D01*
D10*
X44557144Y62221428D02*
X44842856Y62507144D01*
D10*
X44700000Y64078572D02*
X44842856Y64221428D01*
D10*
X44700000Y63650000D02*
X44700000Y64078572D01*
D10*
X44985716Y62792856D02*
X44700000Y63650000D01*
D10*
X44985716Y62507144D02*
X44985716Y62792856D01*
D10*
X44842856Y62364284D02*
X44985716Y62507144D01*
D10*
X44557144Y62221428D02*
X44842856Y62364284D01*
D10*
X44414288Y62221428D02*
X44557144Y62221428D01*
D10*
X43985716Y62364284D02*
X44414288Y62221428D01*
D10*
X43700000Y62650000D02*
X43985716Y62364284D01*
D10*
X43414288Y63078572D02*
X43700000Y62650000D01*
D10*
X43271428Y63650000D02*
X43414288Y63078572D01*
D10*
X43271428Y64221428D02*
X43271428Y63650000D01*
D10*
X43414288Y64221428D02*
X43271428Y64221428D01*
D10*
X43271428Y63935716D02*
X43414288Y64221428D01*
D10*
X40700000Y62221428D02*
X39985712Y64650000D01*
D10*
X40557144Y62221428D02*
X39700000Y65221428D01*
D10*
X40128572Y64792856D02*
X39700000Y65221428D01*
D10*
X40557144Y64507144D02*
X40128572Y64792856D01*
D10*
X40842856Y64364284D02*
X40557144Y64507144D01*
D10*
X40414288Y64507144D02*
X39842856Y64792856D01*
D10*
X40842856Y64364284D02*
X40414288Y64507144D01*
D10*
X50271428Y24821428D02*
X49414284Y27821428D01*
D10*
X50128572Y24821428D02*
X49271428Y27821428D01*
D10*
X48985716Y25821428D02*
X48700000Y26964286D01*
D10*
X47700000Y27821428D02*
X49842856Y27821428D01*
D10*
X47842856Y26964286D02*
X47700000Y27821428D01*
D10*
X47842856Y27821428D02*
X47842856Y26964286D01*
D10*
X48842856Y26392858D02*
X49700000Y26392858D01*
D10*
X49700000Y24821428D02*
X50700000Y24821428D01*
D10*
X47271428Y26535714D02*
X47414284Y26250000D01*
D10*
X46985716Y26821428D02*
X47271428Y26535714D01*
D10*
X46557144Y26821428D02*
X46985716Y26821428D01*
D10*
X46414288Y26678572D02*
X46557144Y26821428D01*
D10*
X46414288Y26392858D02*
X46414288Y26678572D01*
D10*
X46557144Y25821428D02*
X46414288Y26392858D01*
D10*
X46842856Y24821428D02*
X46557144Y25821428D01*
D10*
X46557144Y26678572D02*
X46700000Y26821428D01*
D10*
X46557144Y26392858D02*
X46557144Y26678572D01*
D10*
X46700000Y25821428D02*
X46557144Y26392858D01*
D10*
X46985716Y24821428D02*
X46700000Y25821428D01*
D10*
X46271428Y26392858D02*
X46557144Y25821428D01*
D10*
X45985716Y26678572D02*
X46271428Y26392858D01*
D10*
X45700000Y26821428D02*
X45985716Y26678572D01*
D10*
X45414288Y26821428D02*
X45700000Y26821428D01*
D10*
X45271428Y26678572D02*
X45414288Y26821428D01*
D10*
X45271428Y26535714D02*
X45271428Y26678572D01*
D10*
X45414288Y26392858D02*
X45271428Y26535714D01*
D10*
X45557144Y26535714D02*
X45414288Y26392858D01*
D10*
X45414288Y26678572D02*
X45557144Y26535714D01*
D10*
X43985716Y27678572D02*
X43842856Y27821428D01*
D10*
X43842856Y27535714D02*
X43985716Y27678572D01*
D10*
X43700000Y27678572D02*
X43842856Y27535714D01*
D10*
X43842856Y27821428D02*
X43700000Y27678572D01*
D10*
X44842856Y26535714D02*
X44985716Y26250000D01*
D10*
X44557144Y26821428D02*
X44842856Y26535714D01*
D10*
X44128572Y26821428D02*
X44557144Y26821428D01*
D10*
X43985716Y26678572D02*
X44128572Y26821428D01*
D10*
X43985716Y26250000D02*
X43985716Y26678572D01*
D10*
X44271428Y25392858D02*
X43985716Y26250000D01*
D10*
X44271428Y24964286D02*
X44271428Y25392858D01*
D10*
X44128572Y24821428D02*
X44271428Y24964286D01*
D10*
X44128572Y26678572D02*
X44271428Y26821428D01*
D10*
X44128572Y26250000D02*
X44128572Y26678572D01*
D10*
X44414288Y25392858D02*
X44128572Y26250000D01*
D10*
X44414288Y24964286D02*
X44414288Y25392858D01*
D10*
X44271428Y24821428D02*
X44414288Y24964286D01*
D10*
X43842856Y24821428D02*
X44271428Y24821428D01*
D10*
X43557144Y25107142D02*
X43842856Y24821428D01*
D10*
X43414288Y25392858D02*
X43557144Y25107142D01*
D10*
X41271428Y25821428D02*
X40700000Y27821428D01*
D10*
X41414288Y25250000D02*
X41271428Y25821428D01*
D10*
X41414288Y24964286D02*
X41414288Y25250000D01*
D10*
X41271428Y24821428D02*
X41414288Y24964286D01*
D10*
X40842856Y24821428D02*
X41271428Y24821428D01*
D10*
X40557144Y25107142D02*
X40842856Y24821428D01*
D10*
X40414288Y25392858D02*
X40557144Y25107142D01*
D10*
X41128572Y25821428D02*
X40557144Y27821428D01*
D10*
X41271428Y25250000D02*
X41128572Y25821428D01*
D10*
X41271428Y24964286D02*
X41271428Y25250000D01*
D10*
X41128572Y24821428D02*
X41271428Y24964286D01*
D10*
X41271428Y26250000D02*
X41271428Y25821428D01*
D10*
X41414288Y26678572D02*
X41271428Y26250000D01*
D10*
X41700000Y26821428D02*
X41414288Y26678572D01*
D10*
X41985712Y26821428D02*
X41700000Y26821428D01*
D10*
X42414288Y26678572D02*
X41985712Y26821428D01*
D10*
X42700000Y26250000D02*
X42414288Y26678572D01*
D10*
X42842856Y25821428D02*
X42700000Y26250000D01*
D10*
X42842856Y25392858D02*
X42842856Y25821428D01*
D10*
X42700000Y25107142D02*
X42842856Y25392858D01*
D10*
X42557144Y24964286D02*
X42700000Y25107142D01*
D10*
X42271428Y24821428D02*
X42557144Y24964286D01*
D10*
X41985712Y24821428D02*
X42271428Y24821428D01*
D10*
X41700000Y24964286D02*
X41985712Y24821428D01*
D10*
X41414288Y25392858D02*
X41700000Y24964286D01*
D10*
X41271428Y25821428D02*
X41414288Y25392858D01*
D10*
X42271428Y26678572D02*
X41985712Y26821428D01*
D10*
X42557144Y26250000D02*
X42271428Y26678572D01*
D10*
X42700000Y25821428D02*
X42557144Y26250000D01*
D10*
X42700000Y25250000D02*
X42700000Y25821428D01*
D10*
X42557144Y24964286D02*
X42700000Y25250000D01*
D10*
X40557144Y27821428D02*
X41128572Y27821428D01*
D10*
X38414288Y24821428D02*
X37842856Y26821428D01*
D10*
X38557144Y24392858D02*
X38414288Y24821428D01*
D10*
X38842856Y23964286D02*
X38557144Y24392858D01*
D10*
X39271428Y23821428D02*
X38842856Y23964286D01*
D10*
X39700000Y23821428D02*
X39271428Y23821428D01*
D10*
X39985712Y23964286D02*
X39700000Y23821428D01*
D10*
X40128572Y24107144D02*
X39985712Y23964286D01*
D10*
X40128572Y24250000D02*
X40128572Y24107144D01*
D10*
X39985712Y24392858D02*
X40128572Y24250000D01*
D10*
X39842856Y24250000D02*
X39985712Y24392858D01*
D10*
X39985712Y24107144D02*
X39842856Y24250000D01*
D10*
X38557144Y24821428D02*
X37985712Y26821428D01*
D10*
X38700000Y24392858D02*
X38557144Y24821428D01*
D10*
X38985712Y23964286D02*
X38700000Y24392858D01*
D10*
X39271428Y23821428D02*
X38985712Y23964286D01*
D10*
X38271428Y26250000D02*
X38271428Y25821428D01*
D10*
X38414288Y26678572D02*
X38271428Y26250000D01*
D10*
X38700000Y26821428D02*
X38414288Y26678572D01*
D10*
X38985712Y26821428D02*
X38700000Y26821428D01*
D10*
X39414288Y26678572D02*
X38985712Y26821428D01*
D10*
X39700000Y26250000D02*
X39414288Y26678572D01*
D10*
X39842856Y25821428D02*
X39700000Y26250000D01*
D10*
X39842856Y25392858D02*
X39842856Y25821428D01*
D10*
X39700000Y25107142D02*
X39842856Y25392858D01*
D10*
X39557144Y24964286D02*
X39700000Y25107142D01*
D10*
X39271428Y24821428D02*
X39557144Y24964286D01*
D10*
X38985712Y24821428D02*
X39271428Y24821428D01*
D10*
X38700000Y24964286D02*
X38985712Y24821428D01*
D10*
X38414288Y25392858D02*
X38700000Y24964286D01*
D10*
X38271428Y25821428D02*
X38414288Y25392858D01*
D10*
X39271428Y26678572D02*
X38985712Y26821428D01*
D10*
X39557144Y26250000D02*
X39271428Y26678572D01*
D10*
X39700000Y25821428D02*
X39557144Y26250000D01*
D10*
X39700000Y25250000D02*
X39700000Y25821428D01*
D10*
X39557144Y24964286D02*
X39700000Y25250000D01*
D10*
X36271428Y25678572D02*
X36842856Y25535714D01*
D10*
X35842856Y25821428D02*
X36271428Y25678572D01*
D10*
X35414288Y26107142D02*
X35842856Y25821428D01*
D10*
X35271428Y26392858D02*
X35414288Y26107142D01*
D10*
X35414288Y26678572D02*
X35271428Y26392858D01*
D10*
X35700000Y26821428D02*
X35414288Y26678572D01*
D10*
X36128572Y26821428D02*
X35700000Y26821428D01*
D10*
X36557144Y26678572D02*
X36128572Y26821428D01*
D10*
X36842856Y26250000D02*
X36557144Y26678572D01*
D10*
X36985712Y25821428D02*
X36842856Y26250000D01*
D10*
X36985712Y25392858D02*
X36985712Y25821428D01*
D10*
X36842856Y25107142D02*
X36985712Y25392858D01*
D10*
X36700000Y24964286D02*
X36842856Y25107142D01*
D10*
X36414288Y24821428D02*
X36700000Y24964286D01*
D10*
X36128572Y24821428D02*
X36414288Y24821428D01*
D10*
X35700000Y24964286D02*
X36128572Y24821428D01*
D10*
X35414288Y25250000D02*
X35700000Y24964286D01*
D10*
X36414288Y26678572D02*
X36128572Y26821428D01*
D10*
X36700000Y26250000D02*
X36414288Y26678572D01*
D10*
X36842856Y25821428D02*
X36700000Y26250000D01*
D10*
X36842856Y25250000D02*
X36842856Y25821428D01*
D10*
X36700000Y24964286D02*
X36842856Y25250000D01*
D10*
X33128572Y25964286D02*
X32557144Y27821428D01*
D10*
X33128572Y25535714D02*
X33128572Y25964286D01*
D10*
X32985714Y25107142D02*
X33128572Y25535714D01*
D10*
X32842858Y24964286D02*
X32985714Y25107142D01*
D10*
X32985714Y25964286D02*
X32414286Y27821428D01*
D10*
X32842858Y26392858D02*
X32985714Y25964286D01*
D10*
X32557144Y26678572D02*
X32842858Y26392858D01*
D10*
X32271428Y26821428D02*
X32557144Y26678572D01*
D10*
X31985714Y26821428D02*
X32271428Y26821428D01*
D10*
X31700000Y26678572D02*
X31985714Y26821428D01*
D10*
X31557144Y26535714D02*
X31700000Y26678572D01*
D10*
X31414286Y26250000D02*
X31557144Y26535714D01*
D10*
X31414286Y25821428D02*
X31414286Y26250000D01*
D10*
X31557144Y25392858D02*
X31414286Y25821428D01*
D10*
X31842858Y24964286D02*
X31557144Y25392858D01*
D10*
X32271428Y24821428D02*
X31842858Y24964286D01*
D10*
X32557144Y24821428D02*
X32271428Y24821428D01*
D10*
X32842858Y24964286D02*
X32557144Y24821428D01*
D10*
X32985714Y25392858D02*
X32842858Y24964286D01*
D10*
X32985714Y25964286D02*
X32985714Y25392858D01*
D10*
X31557144Y26392858D02*
X31700000Y26678572D01*
D10*
X31557144Y25821428D02*
X31557144Y26392858D01*
D10*
X31700000Y25392858D02*
X31557144Y25821428D01*
D10*
X31985714Y24964286D02*
X31700000Y25392858D01*
D10*
X32271428Y24821428D02*
X31985714Y24964286D01*
D10*
X32414286Y27821428D02*
X32985714Y27821428D01*
D10*
X30700000Y26535714D02*
X30842858Y26250000D01*
D10*
X30414286Y26821428D02*
X30700000Y26535714D01*
D10*
X29985714Y26821428D02*
X30414286Y26821428D01*
D10*
X29842858Y26678572D02*
X29985714Y26821428D01*
D10*
X29842858Y26250000D02*
X29842858Y26678572D01*
D10*
X30128572Y25392858D02*
X29842858Y26250000D01*
D10*
X30128572Y25107142D02*
X30128572Y25392858D01*
D10*
X29842858Y24821428D02*
X30128572Y25107142D01*
D10*
X29985714Y26678572D02*
X30128572Y26821428D01*
D10*
X29985714Y26250000D02*
X29985714Y26678572D01*
D10*
X30271428Y25392858D02*
X29985714Y26250000D01*
D10*
X30271428Y25107142D02*
X30271428Y25392858D01*
D10*
X30128572Y24964286D02*
X30271428Y25107142D01*
D10*
X29842858Y24821428D02*
X30128572Y24964286D01*
D10*
X29557144Y24821428D02*
X29842858Y24821428D01*
D10*
X29271428Y24964286D02*
X29557144Y24821428D01*
D10*
X28985714Y25250000D02*
X29271428Y24964286D01*
D10*
X28700000Y25821428D02*
X28985714Y25250000D01*
D10*
X28700000Y25821428D02*
X28414286Y26821428D01*
D10*
X28842858Y25250000D02*
X28700000Y25821428D01*
D10*
X28842858Y24964286D02*
X28842858Y25250000D01*
D10*
X28700000Y24821428D02*
X28842858Y24964286D01*
D10*
X28271428Y24821428D02*
X28700000Y24821428D01*
D10*
X27985714Y25107142D02*
X28271428Y24821428D01*
D10*
X27842858Y25392858D02*
X27985714Y25107142D01*
D10*
X28557144Y25821428D02*
X28271428Y26821428D01*
D10*
X28700000Y25250000D02*
X28557144Y25821428D01*
D10*
X28700000Y24964286D02*
X28700000Y25250000D01*
D10*
X28557144Y24821428D02*
X28700000Y24964286D01*
D10*
X25414286Y26535714D02*
X25271428Y26821428D01*
D10*
X25700000Y26250000D02*
X25414286Y26535714D01*
D10*
X26842858Y25392858D02*
X25700000Y26250000D01*
D10*
X27128572Y25107142D02*
X26842858Y25392858D01*
D10*
X27271428Y24821428D02*
X27128572Y25107142D01*
D10*
X26985714Y26535714D02*
X27128572Y26250000D01*
D10*
X26700000Y26821428D02*
X26985714Y26535714D01*
D10*
X26271428Y26821428D02*
X26700000Y26821428D01*
D10*
X25700000Y26535714D02*
X26271428Y26821428D01*
D10*
X26700000Y26678572D02*
X26985714Y26535714D01*
D10*
X26271428Y26678572D02*
X26700000Y26678572D01*
D10*
X25700000Y26535714D02*
X26271428Y26678572D01*
D10*
X25414286Y26535714D02*
X25700000Y26535714D01*
D10*
X26842858Y25107142D02*
X27128572Y25107142D01*
D10*
X26271428Y24964286D02*
X26842858Y25107142D01*
D10*
X25842858Y24964286D02*
X26271428Y24964286D01*
D10*
X25557144Y25107142D02*
X25842858Y24964286D01*
D10*
X26271428Y24821428D02*
X26842858Y25107142D01*
D10*
X25842858Y24821428D02*
X26271428Y24821428D01*
D10*
X25557144Y25107142D02*
X25842858Y24821428D01*
D10*
X25414286Y25392858D02*
X25557144Y25107142D01*
D10*
X22557144Y26535714D02*
X22414286Y26821428D01*
D10*
X22842858Y26250000D02*
X22557144Y26535714D01*
D10*
X23985714Y25392858D02*
X22842858Y26250000D01*
D10*
X24271428Y25107142D02*
X23985714Y25392858D01*
D10*
X24414286Y24821428D02*
X24271428Y25107142D01*
D10*
X24128572Y26535714D02*
X24271428Y26250000D01*
D10*
X23842858Y26821428D02*
X24128572Y26535714D01*
D10*
X23414286Y26821428D02*
X23842858Y26821428D01*
D10*
X22842858Y26535714D02*
X23414286Y26821428D01*
D10*
X23842858Y26678572D02*
X24128572Y26535714D01*
D10*
X23414286Y26678572D02*
X23842858Y26678572D01*
D10*
X22842858Y26535714D02*
X23414286Y26678572D01*
D10*
X22557144Y26535714D02*
X22842858Y26535714D01*
D10*
X23985714Y25107142D02*
X24271428Y25107142D01*
D10*
X23414286Y24964286D02*
X23985714Y25107142D01*
D10*
X22985714Y24964286D02*
X23414286Y24964286D01*
D10*
X22700000Y25107142D02*
X22985714Y24964286D01*
D10*
X23414286Y24821428D02*
X23985714Y25107142D01*
D10*
X22985714Y24821428D02*
X23414286Y24821428D01*
D10*
X22700000Y25107142D02*
X22985714Y24821428D01*
D10*
X22557144Y25392858D02*
X22700000Y25107142D01*
D10*
X20842858Y25678572D02*
X21414286Y25535714D01*
D10*
X20414286Y25821428D02*
X20842858Y25678572D01*
D10*
X19985714Y26107142D02*
X20414286Y25821428D01*
D10*
X19842858Y26392858D02*
X19985714Y26107142D01*
D10*
X19985714Y26678572D02*
X19842858Y26392858D01*
D10*
X20271430Y26821428D02*
X19985714Y26678572D01*
D10*
X20700000Y26821428D02*
X20271430Y26821428D01*
D10*
X21128572Y26678572D02*
X20700000Y26821428D01*
D10*
X21414286Y26250000D02*
X21128572Y26678572D01*
D10*
X21557144Y25821428D02*
X21414286Y26250000D01*
D10*
X21557144Y25392858D02*
X21557144Y25821428D01*
D10*
X21414286Y25107142D02*
X21557144Y25392858D01*
D10*
X21271430Y24964286D02*
X21414286Y25107142D01*
D10*
X20985714Y24821428D02*
X21271430Y24964286D01*
D10*
X20700000Y24821428D02*
X20985714Y24821428D01*
D10*
X20271430Y24964286D02*
X20700000Y24821428D01*
D10*
X19985714Y25250000D02*
X20271430Y24964286D01*
D10*
X20985714Y26678572D02*
X20700000Y26821428D01*
D10*
X21271430Y26250000D02*
X20985714Y26678572D01*
D10*
X21414286Y25821428D02*
X21271430Y26250000D01*
D10*
X21414286Y25250000D02*
X21414286Y25821428D01*
D10*
X21271430Y24964286D02*
X21414286Y25250000D01*
D10*
X19128572Y26535714D02*
X19271430Y26250000D01*
D10*
X18842858Y26821428D02*
X19128572Y26535714D01*
D10*
X18414286Y26821428D02*
X18842858Y26821428D01*
D10*
X18271430Y26678572D02*
X18414286Y26821428D01*
D10*
X18271430Y26392858D02*
X18271430Y26678572D01*
D10*
X18414286Y25821428D02*
X18271430Y26392858D01*
D10*
X18700000Y24821428D02*
X18414286Y25821428D01*
D10*
X18414286Y26678572D02*
X18557144Y26821428D01*
D10*
X18414286Y26392858D02*
X18414286Y26678572D01*
D10*
X18557144Y25821428D02*
X18414286Y26392858D01*
D10*
X18842858Y24821428D02*
X18557144Y25821428D01*
D10*
X18128572Y26392858D02*
X18414286Y25821428D01*
D10*
X17842858Y26678572D02*
X18128572Y26392858D01*
D10*
X17557144Y26821428D02*
X17842858Y26678572D01*
D10*
X17271430Y26821428D02*
X17557144Y26821428D01*
D10*
X17128572Y26678572D02*
X17271430Y26821428D01*
D10*
X17128572Y26535714D02*
X17128572Y26678572D01*
D10*
X17271430Y26392858D02*
X17128572Y26535714D01*
D10*
X17414286Y26535714D02*
X17271430Y26392858D01*
D10*
X17271430Y26678572D02*
X17414286Y26535714D01*
D10*
X50271428Y20521428D02*
X49414284Y23521428D01*
D10*
X50128572Y20521428D02*
X49271428Y23521428D01*
D10*
X48842856Y23521428D02*
X49842856Y23521428D01*
D10*
X48557144Y20521428D02*
X50700000Y20521428D01*
D10*
X48271428Y21378572D02*
X48557144Y20521428D01*
D10*
X48700000Y20521428D02*
X48271428Y21378572D01*
D10*
X47557144Y22235714D02*
X47700000Y21950000D01*
D10*
X47271428Y22521428D02*
X47557144Y22235714D01*
D10*
X46842856Y22521428D02*
X47271428Y22521428D01*
D10*
X46700000Y22378572D02*
X46842856Y22521428D01*
D10*
X46700000Y21950000D02*
X46700000Y22378572D01*
D10*
X46985716Y21092858D02*
X46700000Y21950000D01*
D10*
X46985716Y20807142D02*
X46985716Y21092858D01*
D10*
X46700000Y20521428D02*
X46985716Y20807142D01*
D10*
X46842856Y22378572D02*
X46985716Y22521428D01*
D10*
X46842856Y21950000D02*
X46842856Y22378572D01*
D10*
X47128572Y21092858D02*
X46842856Y21950000D01*
D10*
X47128572Y20807142D02*
X47128572Y21092858D01*
D10*
X46985716Y20664286D02*
X47128572Y20807142D01*
D10*
X46700000Y20521428D02*
X46985716Y20664286D01*
D10*
X46414288Y20521428D02*
X46700000Y20521428D01*
D10*
X46128572Y20664286D02*
X46414288Y20521428D01*
D10*
X45842856Y20950000D02*
X46128572Y20664286D01*
D10*
X45557144Y21521428D02*
X45842856Y20950000D01*
D10*
X45557144Y21521428D02*
X45271428Y22521428D01*
D10*
X45700000Y20950000D02*
X45557144Y21521428D01*
D10*
X45700000Y20664286D02*
X45700000Y20950000D01*
D10*
X45557144Y20521428D02*
X45700000Y20664286D01*
D10*
X45128572Y20521428D02*
X45557144Y20521428D01*
D10*
X44842856Y20807142D02*
X45128572Y20521428D01*
D10*
X44700000Y21092858D02*
X44842856Y20807142D01*
D10*
X45414288Y21521428D02*
X45128572Y22521428D01*
D10*
X45557144Y20950000D02*
X45414288Y21521428D01*
D10*
X45557144Y20664286D02*
X45557144Y20950000D01*
D10*
X45414288Y20521428D02*
X45557144Y20664286D01*
D10*
X44271428Y20521428D02*
X43414288Y23521428D01*
D10*
X44128572Y20521428D02*
X43271428Y23521428D01*
D10*
X42414288Y22235714D02*
X42271428Y22378572D01*
D10*
X42271428Y22092858D02*
X42414288Y22235714D01*
D10*
X42128572Y22235714D02*
X42271428Y22092858D01*
D10*
X42128572Y22378572D02*
X42128572Y22235714D01*
D10*
X42271428Y22521428D02*
X42128572Y22378572D01*
D10*
X42414288Y22521428D02*
X42271428Y22521428D01*
D10*
X42700000Y22378572D02*
X42414288Y22521428D01*
D10*
X43271428Y21807142D02*
X42700000Y22378572D01*
D10*
X43557144Y21664286D02*
X43271428Y21807142D01*
D10*
X43842856Y21664286D02*
X43557144Y21664286D01*
D10*
X43271428Y21521428D02*
X43557144Y21664286D01*
D10*
X42985716Y20664286D02*
X43271428Y21521428D01*
D10*
X42842856Y20521428D02*
X42985716Y20664286D01*
D10*
X43414288Y21521428D02*
X43557144Y21664286D01*
D10*
X43128572Y20664286D02*
X43414288Y21521428D01*
D10*
X42985716Y20521428D02*
X43128572Y20664286D01*
D10*
X42700000Y20521428D02*
X42985716Y20521428D01*
D10*
X42414288Y20664286D02*
X42700000Y20521428D01*
D10*
X42128572Y21092858D02*
X42414288Y20664286D01*
D10*
X43271428Y23521428D02*
X43842856Y23521428D01*
D10*
X39700000Y21521428D02*
X39414288Y22521428D01*
D10*
X39842856Y20950000D02*
X39700000Y21521428D01*
D10*
X39842856Y20664286D02*
X39842856Y20950000D01*
D10*
X39700000Y20521428D02*
X39842856Y20664286D01*
D10*
X39271428Y20521428D02*
X39700000Y20521428D01*
D10*
X38985712Y20807142D02*
X39271428Y20521428D01*
D10*
X38842856Y21092858D02*
X38985712Y20807142D01*
D10*
X39557144Y21521428D02*
X39271428Y22521428D01*
D10*
X39700000Y20950000D02*
X39557144Y21521428D01*
D10*
X39700000Y20664286D02*
X39700000Y20950000D01*
D10*
X39557144Y20521428D02*
X39700000Y20664286D01*
D10*
X39700000Y21950000D02*
X39700000Y21521428D01*
D10*
X39842856Y22378572D02*
X39700000Y21950000D01*
D10*
X40128572Y22521428D02*
X39842856Y22378572D01*
D10*
X40414288Y22521428D02*
X40128572Y22521428D01*
D10*
X40842856Y22378572D02*
X40414288Y22521428D01*
D10*
X41128572Y21950000D02*
X40842856Y22378572D01*
D10*
X41271428Y21521428D02*
X41128572Y21950000D01*
D10*
X41271428Y21092858D02*
X41271428Y21521428D01*
D10*
X41128572Y20807142D02*
X41271428Y21092858D01*
D10*
X40985712Y20664286D02*
X41128572Y20807142D01*
D10*
X40700000Y20521428D02*
X40985712Y20664286D01*
D10*
X40414288Y20521428D02*
X40700000Y20521428D01*
D10*
X40128572Y20664286D02*
X40414288Y20521428D01*
D10*
X39842856Y21092858D02*
X40128572Y20664286D01*
D10*
X39700000Y21521428D02*
X39842856Y21092858D01*
D10*
X40700000Y22378572D02*
X40414288Y22521428D01*
D10*
X40985712Y21950000D02*
X40700000Y22378572D01*
D10*
X41128572Y21521428D02*
X40985712Y21950000D01*
D10*
X41128572Y20950000D02*
X41128572Y21521428D01*
D10*
X40985712Y20664286D02*
X41128572Y20950000D01*
D10*
X36700000Y22092858D02*
X36700000Y22235714D01*
D10*
X36557144Y22092858D02*
X36700000Y22092858D01*
D10*
X36557144Y22235714D02*
X36557144Y22092858D01*
D10*
X36700000Y22378572D02*
X36557144Y22235714D01*
D10*
X37128572Y22521428D02*
X36700000Y22378572D01*
D10*
X37557144Y22521428D02*
X37128572Y22521428D01*
D10*
X37985712Y22378572D02*
X37557144Y22521428D01*
D10*
X38128572Y22235714D02*
X37985712Y22378572D01*
D10*
X38128572Y21950000D02*
X38128572Y22235714D01*
D10*
X37985712Y21807142D02*
X38128572Y21950000D01*
D10*
X36985712Y21235714D02*
X37985712Y21807142D01*
D10*
X36842856Y21092858D02*
X36985712Y21235714D01*
D10*
X37985712Y21950000D02*
X38128572Y22092858D01*
D10*
X36985712Y21378572D02*
X37985712Y21950000D01*
D10*
X36842856Y21235714D02*
X36985712Y21378572D01*
D10*
X36842856Y20807142D02*
X36842856Y21235714D01*
D10*
X36985712Y20664286D02*
X36842856Y20807142D01*
D10*
X37414288Y20521428D02*
X36985712Y20664286D01*
D10*
X37842856Y20521428D02*
X37414288Y20521428D01*
D10*
X38271428Y20664286D02*
X37842856Y20521428D01*
D10*
X38414288Y20807142D02*
X38271428Y20664286D01*
D10*
X38414288Y20950000D02*
X38414288Y20807142D01*
D10*
X38271428Y20950000D02*
X38414288Y20950000D01*
D10*
X38271428Y20807142D02*
X38271428Y20950000D01*
D10*
X34700000Y20521428D02*
X33842856Y23521428D01*
D10*
X34557144Y20521428D02*
X33700000Y23521428D01*
D10*
X34271428Y21664286D02*
X31842858Y23521428D01*
D10*
X32700000Y20521428D02*
X33271428Y22235714D01*
D10*
X32842858Y20521428D02*
X33414286Y22235714D01*
D10*
X33271428Y23521428D02*
X34271428Y23521428D01*
D10*
X31557144Y23521428D02*
X32414286Y23521428D01*
D10*
X34128572Y20521428D02*
X35128572Y20521428D01*
D10*
X32414286Y20521428D02*
X33271428Y20521428D01*
D10*
X31271428Y20664286D02*
X31128572Y20807142D01*
D10*
X31128572Y20521428D02*
X31271428Y20664286D01*
D10*
X30985714Y20664286D02*
X31128572Y20521428D01*
D10*
X31128572Y20807142D02*
X30985714Y20664286D01*
D10*
X28128572Y22807142D02*
X28271428Y22950000D01*
D10*
X28271428Y22664286D02*
X28128572Y22807142D01*
D10*
X28414286Y22807142D02*
X28271428Y22664286D01*
D10*
X28414286Y22950000D02*
X28414286Y22807142D01*
D10*
X28271428Y23235714D02*
X28414286Y22950000D01*
D10*
X28128572Y23378572D02*
X28271428Y23235714D01*
D10*
X27700000Y23521428D02*
X28128572Y23378572D01*
D10*
X27271428Y23521428D02*
X27700000Y23521428D01*
D10*
X26842858Y23378572D02*
X27271428Y23521428D01*
D10*
X26700000Y23092858D02*
X26842858Y23378572D01*
D10*
X26700000Y22807142D02*
X26700000Y23092858D01*
D10*
X26842858Y22521428D02*
X26700000Y22807142D01*
D10*
X27128572Y22235714D02*
X26842858Y22521428D01*
D10*
X27557144Y21950000D02*
X27128572Y22235714D01*
D10*
X28128572Y21664286D02*
X27557144Y21950000D01*
D10*
X28557144Y21378572D02*
X28128572Y21664286D01*
D10*
X28842858Y21092858D02*
X28557144Y21378572D01*
D10*
X29128572Y20521428D02*
X28842858Y21092858D01*
D10*
X26985714Y23378572D02*
X27271428Y23521428D01*
D10*
X26842858Y23092858D02*
X26985714Y23378572D01*
D10*
X26842858Y22807142D02*
X26842858Y23092858D01*
D10*
X26985714Y22521428D02*
X26842858Y22807142D01*
D10*
X27271428Y22235714D02*
X26985714Y22521428D01*
D10*
X28128572Y21664286D02*
X27271428Y22235714D01*
D10*
X28842858Y20950000D02*
X28985714Y20807142D01*
D10*
X28557144Y20950000D02*
X28842858Y20950000D01*
D10*
X27842858Y20664286D02*
X28557144Y20950000D01*
D10*
X27414286Y20664286D02*
X27842858Y20664286D01*
D10*
X27128572Y20807142D02*
X27414286Y20664286D01*
D10*
X26985714Y21092858D02*
X27128572Y20807142D01*
D10*
X27842858Y20521428D02*
X28557144Y20950000D01*
D10*
X27414286Y20521428D02*
X27842858Y20521428D01*
D10*
X27128572Y20664286D02*
X27414286Y20521428D01*
D10*
X26985714Y21092858D02*
X27128572Y20664286D01*
D10*
X24985714Y23378572D02*
X24557144Y23521428D01*
D10*
X25271428Y23092858D02*
X24985714Y23378572D01*
D10*
X25557144Y22664286D02*
X25271428Y23092858D01*
D10*
X25700000Y22235714D02*
X25557144Y22664286D01*
D10*
X25842858Y21664286D02*
X25700000Y22235714D01*
D10*
X25842858Y21235714D02*
X25842858Y21664286D01*
D10*
X25700000Y20807142D02*
X25842858Y21235714D01*
D10*
X25557144Y20664286D02*
X25700000Y20807142D01*
D10*
X25271428Y20521428D02*
X25557144Y20664286D01*
D10*
X24985714Y20521428D02*
X25271428Y20521428D01*
D10*
X24557144Y20664286D02*
X24985714Y20521428D01*
D10*
X24271428Y20950000D02*
X24557144Y20664286D01*
D10*
X23985714Y21378572D02*
X24271428Y20950000D01*
D10*
X23842858Y21807142D02*
X23985714Y21378572D01*
D10*
X23700000Y22378572D02*
X23842858Y21807142D01*
D10*
X23700000Y22807142D02*
X23700000Y22378572D01*
D10*
X23842858Y23235714D02*
X23700000Y22807142D01*
D10*
X23985714Y23378572D02*
X23842858Y23235714D01*
D10*
X24271428Y23521428D02*
X23985714Y23378572D01*
D10*
X24557144Y23521428D02*
X24271428Y23521428D01*
D10*
X24842858Y23378572D02*
X24557144Y23521428D01*
D10*
X25128572Y23092858D02*
X24842858Y23378572D01*
D10*
X25414286Y22664286D02*
X25128572Y23092858D01*
D10*
X25557144Y22235714D02*
X25414286Y22664286D01*
D10*
X25700000Y21664286D02*
X25557144Y22235714D01*
D10*
X25700000Y21235714D02*
X25700000Y21664286D01*
D10*
X25557144Y20807142D02*
X25700000Y21235714D01*
D10*
X25271428Y20521428D02*
X25557144Y20807142D01*
D10*
X24700000Y20664286D02*
X24985714Y20521428D01*
D10*
X24414286Y20950000D02*
X24700000Y20664286D01*
D10*
X24128572Y21378572D02*
X24414286Y20950000D01*
D10*
X23985714Y21807142D02*
X24128572Y21378572D01*
D10*
X23842858Y22378572D02*
X23985714Y21807142D01*
D10*
X23842858Y22807142D02*
X23842858Y22378572D01*
D10*
X23985714Y23235714D02*
X23842858Y22807142D01*
D10*
X24271428Y23521428D02*
X23985714Y23235714D01*
D10*
X22128572Y22807142D02*
X22271430Y22950000D01*
D10*
X22271430Y22664286D02*
X22128572Y22807142D01*
D10*
X22414286Y22807142D02*
X22271430Y22664286D01*
D10*
X22414286Y22950000D02*
X22414286Y22807142D01*
D10*
X22271430Y23235714D02*
X22414286Y22950000D01*
D10*
X22128572Y23378572D02*
X22271430Y23235714D01*
D10*
X21700000Y23521428D02*
X22128572Y23378572D01*
D10*
X21271430Y23521428D02*
X21700000Y23521428D01*
D10*
X20842858Y23378572D02*
X21271430Y23521428D01*
D10*
X20700000Y23092858D02*
X20842858Y23378572D01*
D10*
X20700000Y22807142D02*
X20700000Y23092858D01*
D10*
X20842858Y22521428D02*
X20700000Y22807142D01*
D10*
X21128572Y22235714D02*
X20842858Y22521428D01*
D10*
X21557144Y21950000D02*
X21128572Y22235714D01*
D10*
X22128572Y21664286D02*
X21557144Y21950000D01*
D10*
X22557144Y21378572D02*
X22128572Y21664286D01*
D10*
X22842858Y21092858D02*
X22557144Y21378572D01*
D10*
X23128572Y20521428D02*
X22842858Y21092858D01*
D10*
X20985714Y23378572D02*
X21271430Y23521428D01*
D10*
X20842858Y23092858D02*
X20985714Y23378572D01*
D10*
X20842858Y22807142D02*
X20842858Y23092858D01*
D10*
X20985714Y22521428D02*
X20842858Y22807142D01*
D10*
X21271430Y22235714D02*
X20985714Y22521428D01*
D10*
X22128572Y21664286D02*
X21271430Y22235714D01*
D10*
X22842858Y20950000D02*
X22985714Y20807142D01*
D10*
X22557144Y20950000D02*
X22842858Y20950000D01*
D10*
X21842858Y20664286D02*
X22557144Y20950000D01*
D10*
X21414286Y20664286D02*
X21842858Y20664286D01*
D10*
X21128572Y20807142D02*
X21414286Y20664286D01*
D10*
X20985714Y21092858D02*
X21128572Y20807142D01*
D10*
X21842858Y20521428D02*
X22557144Y20950000D01*
D10*
X21414286Y20521428D02*
X21842858Y20521428D01*
D10*
X21128572Y20664286D02*
X21414286Y20521428D01*
D10*
X20985714Y21092858D02*
X21128572Y20664286D01*
D10*
X19128572Y22807142D02*
X19271430Y22950000D01*
D10*
X19271430Y22664286D02*
X19128572Y22807142D01*
D10*
X19414286Y22807142D02*
X19271430Y22664286D01*
D10*
X19414286Y22950000D02*
X19414286Y22807142D01*
D10*
X19271430Y23235714D02*
X19414286Y22950000D01*
D10*
X19128572Y23378572D02*
X19271430Y23235714D01*
D10*
X18700000Y23521428D02*
X19128572Y23378572D01*
D10*
X18271430Y23521428D02*
X18700000Y23521428D01*
D10*
X17842858Y23378572D02*
X18271430Y23521428D01*
D10*
X17700000Y23092858D02*
X17842858Y23378572D01*
D10*
X17700000Y22807142D02*
X17700000Y23092858D01*
D10*
X17842858Y22521428D02*
X17700000Y22807142D01*
D10*
X18128572Y22235714D02*
X17842858Y22521428D01*
D10*
X18557144Y21950000D02*
X18128572Y22235714D01*
D10*
X19128572Y21664286D02*
X18557144Y21950000D01*
D10*
X19557144Y21378572D02*
X19128572Y21664286D01*
D10*
X19842858Y21092858D02*
X19557144Y21378572D01*
D10*
X20128572Y20521428D02*
X19842858Y21092858D01*
D10*
X17985714Y23378572D02*
X18271430Y23521428D01*
D10*
X17842858Y23092858D02*
X17985714Y23378572D01*
D10*
X17842858Y22807142D02*
X17842858Y23092858D01*
D10*
X17985714Y22521428D02*
X17842858Y22807142D01*
D10*
X18271430Y22235714D02*
X17985714Y22521428D01*
D10*
X19128572Y21664286D02*
X18271430Y22235714D01*
D10*
X19842858Y20950000D02*
X19985714Y20807142D01*
D10*
X19557144Y20950000D02*
X19842858Y20950000D01*
D10*
X18842858Y20664286D02*
X19557144Y20950000D01*
D10*
X18414286Y20664286D02*
X18842858Y20664286D01*
D10*
X18128572Y20807142D02*
X18414286Y20664286D01*
D10*
X17985714Y21092858D02*
X18128572Y20807142D01*
D10*
X18842858Y20521428D02*
X19557144Y20950000D01*
D10*
X18414286Y20521428D02*
X18842858Y20521428D01*
D10*
X18128572Y20664286D02*
X18414286Y20521428D01*
D10*
X17985714Y21092858D02*
X18128572Y20664286D01*
D10*
X50414284Y17935714D02*
X50557144Y17650000D01*
D10*
X50128572Y18221428D02*
X50414284Y17935714D01*
D10*
X49700000Y18221428D02*
X50128572Y18221428D01*
D10*
X49557144Y18078572D02*
X49700000Y18221428D01*
D10*
X49557144Y17792858D02*
X49557144Y18078572D01*
D10*
X49700000Y17221428D02*
X49557144Y17792858D01*
D10*
X49985716Y16221429D02*
X49700000Y17221428D01*
D10*
X49700000Y18078572D02*
X49842856Y18221428D01*
D10*
X49700000Y17792858D02*
X49700000Y18078572D01*
D10*
X49842856Y17221428D02*
X49700000Y17792858D01*
D10*
X50128572Y16221429D02*
X49842856Y17221428D01*
D10*
X49414284Y17792858D02*
X49700000Y17221428D01*
D10*
X49128572Y18078572D02*
X49414284Y17792858D01*
D10*
X48842856Y18221428D02*
X49128572Y18078572D01*
D10*
X48557144Y18221428D02*
X48842856Y18221428D01*
D10*
X48414284Y18078572D02*
X48557144Y18221428D01*
D10*
X48414284Y17935714D02*
X48414284Y18078572D01*
D10*
X48557144Y17792858D02*
X48414284Y17935714D01*
D10*
X48700000Y17935714D02*
X48557144Y17792858D01*
D10*
X48557144Y18078572D02*
X48700000Y17935714D01*
D10*
X47128572Y17078572D02*
X47700000Y16935714D01*
D10*
X46700000Y17221428D02*
X47128572Y17078572D01*
D10*
X46271428Y17507142D02*
X46700000Y17221428D01*
D10*
X46128572Y17792858D02*
X46271428Y17507142D01*
D10*
X46271428Y18078572D02*
X46128572Y17792858D01*
D10*
X46557144Y18221428D02*
X46271428Y18078572D01*
D10*
X46985716Y18221428D02*
X46557144Y18221428D01*
D10*
X47414284Y18078572D02*
X46985716Y18221428D01*
D10*
X47700000Y17650000D02*
X47414284Y18078572D01*
D10*
X47842856Y17221428D02*
X47700000Y17650000D01*
D10*
X47842856Y16792858D02*
X47842856Y17221428D01*
D10*
X47700000Y16507143D02*
X47842856Y16792858D01*
D10*
X47557144Y16364286D02*
X47700000Y16507143D01*
D10*
X47271428Y16221429D02*
X47557144Y16364286D01*
D10*
X46985716Y16221429D02*
X47271428Y16221429D01*
D10*
X46557144Y16364286D02*
X46985716Y16221429D01*
D10*
X46271428Y16650000D02*
X46557144Y16364286D01*
D10*
X47271428Y18078572D02*
X46985716Y18221428D01*
D10*
X47557144Y17650000D02*
X47271428Y18078572D01*
D10*
X47700000Y17221428D02*
X47557144Y17650000D01*
D10*
X47700000Y16650000D02*
X47700000Y17221428D01*
D10*
X47557144Y16364286D02*
X47700000Y16650000D01*
D10*
X45414288Y17935714D02*
X45557144Y17650000D01*
D10*
X45128572Y18221428D02*
X45414288Y17935714D01*
D10*
X44700000Y18221428D02*
X45128572Y18221428D01*
D10*
X44557144Y18078572D02*
X44700000Y18221428D01*
D10*
X44557144Y17650000D02*
X44557144Y18078572D01*
D10*
X44842856Y16792858D02*
X44557144Y17650000D01*
D10*
X44842856Y16507143D02*
X44842856Y16792858D01*
D10*
X44557144Y16221429D02*
X44842856Y16507143D01*
D10*
X44700000Y18078572D02*
X44842856Y18221428D01*
D10*
X44700000Y17650000D02*
X44700000Y18078572D01*
D10*
X44985716Y16792858D02*
X44700000Y17650000D01*
D10*
X44985716Y16507143D02*
X44985716Y16792858D01*
D10*
X44842856Y16364286D02*
X44985716Y16507143D01*
D10*
X44557144Y16221429D02*
X44842856Y16364286D01*
D10*
X44414288Y16221429D02*
X44557144Y16221429D01*
D10*
X43985716Y16364286D02*
X44414288Y16221429D01*
D10*
X43700000Y16650000D02*
X43985716Y16364286D01*
D10*
X43414288Y17078572D02*
X43700000Y16650000D01*
D10*
X43271428Y17650000D02*
X43414288Y17078572D01*
D10*
X43271428Y18221428D02*
X43271428Y17650000D01*
D10*
X43414288Y18221428D02*
X43271428Y18221428D01*
D10*
X43271428Y17935714D02*
X43414288Y18221428D01*
D10*
X40700000Y16221429D02*
X39985712Y18650000D01*
D10*
X40557144Y16221429D02*
X39700000Y19221428D01*
D10*
X40128572Y18792858D02*
X39700000Y19221428D01*
D10*
X40557144Y18507142D02*
X40128572Y18792858D01*
D10*
X40842856Y18364286D02*
X40557144Y18507142D01*
D10*
X40414288Y18507142D02*
X39842856Y18792858D01*
D10*
X40842856Y18364286D02*
X40414288Y18507142D01*
G75*
M02*
