%FSLAX46Y46*%
%MOMM*%
%AMPS19*
21,1,6.400000,4.200000,0.000000,0.000000,270.000000*
%
%ADD19PS19*%
%AMPS21*
21,1,1.200000,1.800000,0.000000,0.000000,90.000000*
%
%ADD21PS21*%
%AMPS20*
21,1,1.200000,1.800000,0.000000,0.000000,270.000000*
%
%ADD20PS20*%
%AMPS10*
21,1,0.650000,1.250000,0.000000,0.000000,0.000000*
%
%ADD10PS10*%
%AMPS11*
21,1,0.650000,1.250000,0.000000,0.000000,180.000000*
%
%ADD11PS11*%
%AMPS25*
21,1,3.240000,4.710000,0.000000,0.000000,90.000000*
%
%ADD25PS25*%
%AMPS27*
1,1,0.500000,0.000000,0.000000*
%
%ADD27PS27*%
%AMPS23*
1,1,2.200000,-2.750000,0.450000*
1,1,2.200000,2.750000,0.450000*
4,1,4,
-3.850000,-1.550000,
-3.850000,0.450000,
3.850000,0.450000,
3.850000,-1.550000,
-3.850000,-1.550000,
0*
21,1,5.500000,3.100000,0.000000,0.000000,0.000000*
%
%ADD23PS23*%
%AMPS22*
1,1,2.200000,2.750000,-0.450000*
1,1,2.200000,-2.750000,-0.450000*
4,1,4,
3.850000,1.550000,
3.850000,-0.450000,
-3.850000,-0.450000,
-3.850000,1.550000,
3.850000,1.550000,
0*
21,1,5.500000,3.100000,0.000000,0.000000,180.000000*
%
%ADD22PS22*%
%AMPS15*
1,1,2.575000,0.000000,0.000000*
%
%ADD15PS15*%
%AMPS13*
1,1,2.575000,0.000000,0.000000*
%
%ADD13PS13*%
%AMPS16*
1,1,1.190600,0.000000,0.000000*
%
%ADD16PS16*%
%AMPS17*
1,1,0.560000,-0.195000,-0.220000*
1,1,0.560000,0.195000,0.220000*
1,1,0.560000,-0.195000,0.220000*
1,1,0.560000,0.195000,-0.220000*
21,1,1.000000,0.390000,0.000000,0.000000,90.000000*
21,1,0.440000,0.950000,0.000000,0.000000,90.000000*
%
%ADD17PS17*%
%AMPS24*
1,1,0.440000,-0.130000,0.330000*
1,1,0.440000,0.130000,-0.330000*
1,1,0.440000,0.130000,0.330000*
1,1,0.440000,-0.130000,-0.330000*
21,1,0.700000,0.660000,0.000000,0.000000,0.000000*
21,1,0.260000,1.100000,0.000000,0.000000,0.000000*
%
%ADD24PS24*%
%AMPS12*
1,1,0.440000,0.130000,-0.330000*
1,1,0.440000,-0.130000,0.330000*
1,1,0.440000,-0.130000,-0.330000*
1,1,0.440000,0.130000,0.330000*
21,1,0.700000,0.660000,0.000000,0.000000,180.000000*
21,1,0.260000,1.100000,0.000000,0.000000,180.000000*
%
%ADD12PS12*%
%AMPS18*
1,1,0.540000,0.180000,-0.330000*
1,1,0.540000,-0.180000,0.330000*
1,1,0.540000,-0.180000,-0.330000*
1,1,0.540000,0.180000,0.330000*
21,1,0.900000,0.660000,0.000000,0.000000,180.000000*
21,1,0.360000,1.200000,0.000000,0.000000,180.000000*
%
%ADD18PS18*%
%AMPS26*
1,1,0.540000,0.330000,0.180000*
1,1,0.540000,-0.330000,-0.180000*
1,1,0.540000,0.330000,-0.180000*
1,1,0.540000,-0.330000,0.180000*
21,1,0.900000,0.660000,0.000000,0.000000,270.000000*
21,1,0.360000,1.200000,0.000000,0.000000,270.000000*
%
%ADD26PS26*%
%AMPS14*
1,1,0.987400,0.000000,0.000000*
%
%ADD14PS14*%
G01*
G01*
%LPD*%
G75*
D10*
X37812849Y79552031D03*
D11*
X36512849Y85102031D03*
D11*
X39112849Y85102031D03*
D11*
X37812849Y85102031D03*
D11*
X35212849Y85102031D03*
D10*
X35212849Y79552031D03*
D10*
X37162849Y79552031D03*
D10*
X39112849Y79552031D03*
D10*
X36512849Y79552031D03*
D11*
X37162849Y85102031D03*
D10*
X35862849Y79552031D03*
D11*
X35862849Y85102031D03*
D11*
X38462849Y85102031D03*
D10*
X38462849Y79552031D03*
D12*
X32335714Y79464282D03*
D12*
X30835714Y79464282D03*
D13*
X48352849Y79787031D03*
D14*
X44542849Y82962031D03*
D14*
X47082849Y82962031D03*
D13*
X45177849Y79787031D03*
D15*
X48352849Y84867031D03*
D16*
X43272849Y81311031D03*
D14*
X47082849Y81692031D03*
D14*
X45812849Y81692031D03*
D14*
X45812849Y82962031D03*
D14*
X44542849Y81692031D03*
D16*
X43272849Y83343031D03*
D16*
X48352849Y82327031D03*
D15*
X45177849Y84867031D03*
D17*
X47450000Y67800000D03*
D17*
X47450000Y66300000D03*
D12*
X39399724Y86968896D03*
D12*
X37899724Y86968896D03*
D18*
X49825000Y68150000D03*
D18*
X48875000Y65750000D03*
D18*
X50775000Y65750000D03*
D19*
X34775000Y73300000D03*
D19*
X34775000Y54300000D03*
D17*
X16250000Y85675000D03*
D17*
X16250000Y84175000D03*
D20*
X2975000Y87800000D03*
D21*
X9375000Y84000000D03*
D21*
X9375000Y87800000D03*
D20*
X2975000Y84000000D03*
D22*
X21125000Y78800000D03*
D23*
X21125000Y83900000D03*
D24*
X30835714Y77464282D03*
D24*
X32335714Y77464282D03*
D25*
X11700000Y50495000D03*
D25*
X11700000Y80355000D03*
D26*
X26385714Y78464282D03*
D26*
X28785714Y77514282D03*
D26*
X28785714Y79414282D03*
D17*
X33537849Y83077031D03*
D17*
X33537849Y81577031D03*
D27*
X43190349Y84927031D03*
D27*
X8775000Y50150000D03*
D27*
X16250000Y86550000D03*
D27*
X32500000Y82975000D03*
D27*
X11700000Y48200000D03*
D27*
X30135714Y79564280D03*
D27*
X47450000Y69000000D03*
D27*
X14625000Y50150000D03*
D27*
X1625000Y83950000D03*
D10*
X37812849Y33552031D03*
D11*
X36512849Y39102031D03*
D11*
X39112849Y39102031D03*
D11*
X37812849Y39102031D03*
D11*
X35212849Y39102031D03*
D10*
X35212849Y33552031D03*
D10*
X37162849Y33552031D03*
D10*
X39112849Y33552031D03*
D10*
X36512849Y33552031D03*
D11*
X37162849Y39102031D03*
D10*
X35862849Y33552031D03*
D11*
X35862849Y39102031D03*
D11*
X38462849Y39102031D03*
D10*
X38462849Y33552031D03*
D12*
X32335714Y33464282D03*
D12*
X30835714Y33464282D03*
D13*
X48352849Y33787031D03*
D14*
X44542849Y36962031D03*
D14*
X47082849Y36962031D03*
D13*
X45177849Y33787031D03*
D15*
X48352849Y38867031D03*
D16*
X43272849Y35311031D03*
D14*
X47082849Y35692031D03*
D14*
X45812849Y35692031D03*
D14*
X45812849Y36962031D03*
D14*
X44542849Y35692031D03*
D16*
X43272849Y37343031D03*
D16*
X48352849Y36327031D03*
D15*
X45177849Y38867031D03*
D17*
X47450000Y21800000D03*
D17*
X47450000Y20300000D03*
D12*
X39399724Y40968896D03*
D12*
X37899724Y40968896D03*
D18*
X49825000Y22150000D03*
D18*
X48875000Y19750000D03*
D18*
X50775000Y19750000D03*
D19*
X34775000Y27300000D03*
D19*
X34775000Y8300000D03*
D17*
X16250000Y39675000D03*
D17*
X16250000Y38175000D03*
D20*
X2975000Y41800000D03*
D21*
X9375000Y38000000D03*
D21*
X9375000Y41800000D03*
D20*
X2975000Y38000000D03*
D22*
X21125000Y32800000D03*
D23*
X21125000Y37900000D03*
D24*
X30835714Y31464282D03*
D24*
X32335714Y31464282D03*
D25*
X11700000Y4495000D03*
D25*
X11700000Y34355000D03*
D26*
X26385714Y32464282D03*
D26*
X28785714Y31514282D03*
D26*
X28785714Y33414282D03*
D17*
X33537849Y37077031D03*
D17*
X33537849Y35577031D03*
D27*
X43190349Y38927031D03*
D27*
X8775000Y4150000D03*
D27*
X16250000Y40550000D03*
D27*
X32500000Y36975000D03*
D27*
X11700000Y2200000D03*
D27*
X30135714Y33564280D03*
D27*
X47450000Y23000000D03*
D27*
X14625000Y4150000D03*
D27*
X1625000Y37950000D03*
M02*
